<?xml version="1.0" encoding="UTF-8"?>
<svg id="Layer_2" data-name="Layer 2" xmlns="http://www.w3.org/2000/svg" viewBox="0 0 97.86 85.95">
  <g id="Layer_1" data-name="Layer 1">
    <g>
      <path d="M46.39,72.24l-8.25-.22c-4.76,4.23-9.38,8.11-14.93,11.1-2.96,1.6-10.14,3.15-11.11,2.78-.43-.17-.96-.94-1.02-1.38,1.91-2.69,3.77-5.47,4.45-8.67.3-1.42.81-3.2.62-4.57l-.78-5.44C7.44,61.36,1.81,54.12.65,45.01c-.86-6.68-.9-13.48.1-20.12C2.6,12.57,11.51,3.55,23.57,1.03L28.22.06l19.28-.06,6.68.87,6.39.7,4.89.81c5.69.94,10.82,2.57,15.99,5.48,7.47,4.2,12.85,11.42,15.24,19.75l1.17,5.77v10.03s-1.2,6.44-1.2,6.44c-1.55,5.27-3.98,10.09-7.87,13.87l-5.35,4.18c-4.64,2.91-10.1,4.58-15.64,4.95l-13.63.03-4.23-.31-3.56-.35ZM47.29,70.16l6.2.64,8.63.18,6.39-.21,6.1-1.2c9.41-1.86,16.46-9.27,19.7-18.26l1.13-4.57.64-4.31.02-7.35-.72-5.31c-1.55-7.18-5.41-14.11-11.43-18.24-4-2.74-7.94-5.04-12.81-6.12l-6.5-1.44-4.65-.66-8.66-1.18-4.53-.32-4.22-.37-10.42.05-6.43.71c-2.56.28-5.16,1.19-7.56,2.17C11.02,7.26,5.73,13.21,3.53,20.59l-1.12,4.67-.82,7.41c-.23,2.06-.23,4.46.04,6.49l.68,5.02.9,4.26c1.48,6.98,7.61,12.66,13.72,16.49,1.78,5.92,1.15,12.72-2.4,18.14l1.27.48c4.56-.79,8.17-2.86,11.9-5.41l5.65-4.61c1.39-1.13,2.83-3.11,4.8-3.47,2.9-.53,5.94-.25,9.14.08Z"/>
      <path d="M67.55,29.07c.21,6.17-2.58,10.33-6.62,14.55-4.49,4.68-9.1,8.65-14.89,11.92-.73.41-1.88-.38-2.54-.98l-5.01-4.56c-4.38-4.82-7.82-10.4-8.59-16.99-.53-4.52.44-9.05,4.25-11.57s8.72-1.84,11.78,1.53l2.71,3.74,3.54-3.44c2.1-2.05,5.1-2.42,7.98-2.26,4.31.24,7.27,3.86,7.41,8.06ZM52.98,47.75c4.33-3.31,7.99-7.11,10.49-11.84l1.19-3.39c.61-1.73.6-3.42.08-5.15-.96-3.17-3.92-4.93-7.15-4-3.69,1.07-6.49,3.58-7.99,7.19-.24.57-1.47,1.32-1.84.82-1.01-1.35-1.3-2.75-1.89-4.17-1.31-3.18-4.51-4.98-7.89-4.94l-3.12,1.54c-2.4,2.6-3.36,7.89-2.53,10.19l1.78,4.97,3.14,5.64c2.04,2.87,4.67,5.11,7.17,7.57.86.85,1.97.61,2.86-.07l5.71-4.36Z"/>
    </g>
  </g>
</svg>