<?xml version="1.0" encoding="UTF-8"?>
<svg id="Layer_2" data-name="Layer 2" xmlns="http://www.w3.org/2000/svg" viewBox="0 0 116.71 106.29">
  <g id="Layer_1" data-name="Layer 1">
    <g>
      <path d="M112.81,98.37l-18.85,7.61c-1.87.75-4.55-.11-6.45-.16l-8.85-.26-7.14-.63-9.43-1.08-5.65-.68-9.05-1.16-5.13-.67-4.66-.63-9.8-1.13-4.99-.58-4.16-.38-7.08-.7-8.44-.93c-.77-.08-1.97-.12-2.46-.48s-.73-1.61-.68-2.29l.45-6,.77-7.88.66-5.85.86-8.07.56-4.85,1.03-8.79.44-3.6,1.01-8.78.86-5.98.51-5.52.7-5.88.77-5.07.67-6.5.68-3.44,8.98-.69,3.01-.13c.57-.02,1.15.06,1.48,0,.85-.16.56-5.47,4.41-6.93,2.41-.91,5.14.54,6.05,2.74.6,1.45.82,2.68,1.07,4.32l3.95.24c.55.03,1.37.07,1.78,0,.47-.09.76-1.15.88-1.81.48-2.63,2.56-5.46,5.43-5.25s4.86,3.42,5.02,6.16c.02.35.71,1.12,1.09,1.12l5.19.02,1.11-2.5c.82-1.85,2.47-4.25,4.87-4.13,3.29.16,5.11,3.46,5.08,6.67h8.23c.02-3.33,1.99-6.4,5.32-6.41,2.63-.01,4.41,2.72,4.73,5.03.19,1.37,1.1,1.71,2.25,1.76l5.98.26,7.05.23c1.19.04,2.17.59,2.52,1.83l.75,2.65,1.04,6.34,1.09,8.38.72,5.95,1.09,8.38.83,6.31.51,4.54,1.07,10.5.52,4.25.92,7.13,1.04,7.37.72,4.89.99,8.79c-.94,1.05-2.43,1.76-3.9,2.36ZM32.75,7.42c.47-2.87-1-5.23-3.6-5.63-2.17.97-3.66,3.34-2.94,5.63h6.54ZM49.79,7.8c.69-1.97-.3-4.87-2.41-5.22-2.57-.42-4.42,2.72-3.72,5.14l6.14.07ZM67.84,7.8l-1.15-3.27c-.28-.79-1.74-1.61-2.56-1.55-.77.05-2.04.87-2.31,1.55l-1.25,3.21,7.27.07ZM85.89,7.84c-.11-2.07-1.1-4.27-3.08-4.56-2.11-.31-3.89,2.9-3.01,4.6,1.94.35,4.08.31,6.09-.04ZM102.35,21.89l.74-6.22c.23-1.96.74-3.63.38-5.76l-18.41-.11-5.92-.1c-.42,1.81.05,3.54,1.12,4.9l1.72-.74c1.67.18,3.27,2.17,2.42,4.03-.38.82-1.98,2.06-2.88,2.16-1.76.19-3.22-1.27-3.59-2.67l.65-1.14c-1.06-2.05-1.59-4.15-1.85-6.58l-10.36-.19-5.5-.31-.23,2.61c-.07.82.78,2.39,1.6,2.2,1.43-.34,2.48-.33,3.45.65.56.57.84,2.07.29,2.85-.68.95-1.56,1.8-2.3,1.92-.94.16-2.2-.16-2.85-.74-.73-.64-.74-1.77-.45-2.57-1.13-2.05-1.96-4.08-1.88-6.83l-9.24-.22-5.52-.21c-.62,1.39-.42,3.95.96,4.78.7-.02,2.01-.14,2.6.01.53.14,1.11,1.22,1.24,1.88.31,1.56-1.12,2.9-2.31,3.34-1.34.49-3.55-.39-3.65-1.86-.11-1.64-.59-2.86-.91-4.34l-.82-3.76-15.26-.02.67,4.21,2.55-.2c.59-.05,1.8.69,2.16,1.15.73,1.45,0,3.57-1.38,4.23s-3.5.62-4.31-.98l-.12-2.65c-2.02-2.73-.53-5.81-2.66-5.79l-11.49.11-.65,6.18-.59,4.31-.89,8.06-.6,5.41-.75,6.44-.74,6.7-.99,8.43-1.11,9.81-.59,4.63-.9,8.41-.62,6.1-.39,3.38c-.33,2.84-.28,5.28-.94,8.24,2.36.96,4.94.74,7.53.98l10.14.93,6.79.59,10.07,1.18,8.79,1.03,10.22,1.21,9.01,1.13,5.33.65,2.83.33,8.44.77c4.36.4,8.7,1.08,13.19.77l.97-8.93,1.79-17.29.68-6.66.34-3.47.77-7.03,1.04-9.42.53-5.02.87-7.12.85-8.68.28-3.21.63-5.88ZM109.32,98.2c1.34-.55,2.49-.65,3.6-2l-5.41.32c-2.25-1.16-4.91-.12-7.25-.76-1.33-.37-2.68-.73-4.03-.5l-.27,4.93c-.01.25.01.89.2.87l.91-.09c.21-.02.7.02.91.05s-.29.76-.51.73c-.48-.06-1.45-.05-1.64.36-.22.46-.29,1.44-.1,1.71l7.13-2.98,6.45-2.64Z"/>
      <path d="M77.72,92.3l-7.59-.73-7.28-.64-8.72-.82-9.89-1.01-10.48-1.05-7.77-.65-9.14-.95c-.8-.08-1.97-.06-2.47-.45-.46-.36-.74-1.63-.66-2.26l.87-6.92.64-4.84,1.11-9.15.31-3.37,1.13-9.09.67-5.15.65-4.85,1.2-8.05c.06-.41.11-1.46.48-1.51l1.7-.25,8.78-.03,5.27.32,11.56.19,5.26.62,10.22.22,6.78.7,12.09.28,7.09,1.01-.17,5.9-.68,6.35-1.05,8.79-.82,8.41-.52,3.47-1.14,10.47-.59,4.28-.4,4.17-.73,6.01c-1.47.87-3.72.78-5.7.59ZM35.62,43.71l.71-5.46.67-5.14c.14-1.09-1.39-1.12-2.21-1.14l-13.35-.29-.4,4.86c-.52,2.45-.77,4.89-.69,7.41l5.98.23,6.93.25c.74.03,2.2.61,2.37-.72ZM52.86,44.43l.66-4.74.78-6.8-8.32-.24-4.9-.38c-.59-.05-2.2-.11-2.27.48l-.84,6.36c-.26,1.94-.44,3.77-.31,5.86l9.77.37,4.24.29c.23.02.99.12,1.03-.09l.18-1.11ZM70.1,46.82l.2-2.83,1.01-10.14-10.37-.57-5.04-.23-.22,3.05c-.69,3.31-1.11,6.47-.79,9.91l10.7.57,4.52.26ZM87.61,41.03l.64-6.11-7.17-.5-4.85-.4-3.1-.21-.22,4.16-.93,9.11c4.21.02,7.79.04,11.73.6,1.07.15,2.07.16,3.26.09l.63-6.73ZM35.02,48.91l.5-2.56-3.96-.33-4.78-.46-7.01-.16-.5,5.98-.77,5.38,8.49.86,6.75.35,1.27-9.07ZM50.87,59.12l1.12-7.11.7-4.68-7.79-.8-7.82-.06-.76,7.56c-.15,1.48-.72,2.59-.43,4.31l9.4.49,5.58.29ZM67.96,60.46l.77-7.08.55-4.73-11.28-.94c-1.14-.1-2.64-.42-3.54.02l-.32,4.69c-.16,2.36-.33,4.64-.92,7.07,3.93-.16,7.6.31,11.36.66l3.37.31ZM85.24,61.87l.55-5.24c.26-2.5.76-5.1.54-7.39l-7.35-.36-5.53-.51c-.45-.04-1.08-.05-1.4.03s-.62.88-.67,1.21l-1.05,7.06-.13,4.08,4.25.53,7.03.36,3.77.24ZM31.46,71.87c1.64.09,1.07-2.17,1.17-2.96l1.21-9.14-4.03-.41-11.36-.59-.7,5.25-.84,5.98c-.06.4.58.92,1.01.95l9.84.71,3.7.2ZM50.49,64.41l.45-3.54-5.32-.47-3.84-.37-6.06-.22-.77,4.61-.98,7.45,9.57.98,5.85.22,1.11-8.65ZM66.04,74.78c.44-.54.98-1.49.99-1.97.1-3.4.43-6.26,1.1-9.58.1-.5-.84-1.4-1.36-1.42l-7.45-.38-6.8-.11-.6,5.87-.78,4.82c-.06.37-.13,1.11.15,1.25l1.05.53,13.7.99ZM83.37,76.2c1.04-3.92,1.5-12.53,1.43-12.55l-1.24-.21-7.12-.69-6.7-.28-.72,6.76-.82,5.56,7.28,1.01,7.88.4ZM30.8,84.21l.61-5.29.59-4.08c.05-.35-.24-1.25-.54-1.44-.24-.15-.88-.25-1.23-.27l-8.13-.41-5.43-.31-.69,5.79-.73,6.79,4.41.3,8.95.66c.51.04,1.38.05,1.72-.19.28-.2.41-1,.47-1.55ZM47.6,87.5l.7-5.86.84-6.56-10.08-1.09-5.18-.16-.68,4.62-1.09,7.67,2.99.38c4.25.55,8.19,1.05,12.49.98ZM65.44,83.47l.81-5.62c.05-.37-.04-1.12-.25-1.39s-1.02-.46-1.37-.49l-8.13-.66-5.67-.03-1.26,9.15c-.17,1.24-.69,2.66-.15,3.73l7.11.43,8.42.75.49-5.87ZM81.81,91.03c.64-2.87.37-4.87.81-7.44l.97-5.68-7.11-.8-8.18-.44-.74,4.53-1.14,7.13c-.07.42.34,1.46.78,1.49l7.55.65c2.41.21,4.48.81,7.05.55Z"/>
    </g>
  </g>
</svg>