<?xml version="1.0" encoding="UTF-8"?>
<svg id="Layer_2" data-name="Layer 2" xmlns="http://www.w3.org/2000/svg" viewBox="0 0 542.5 542.5">
  <defs>
    <style>
      .cls-1 {
        fill: none;
      }

      .cls-2 {
        fill: #1b1b1b;
      }
    </style>
  </defs>
  <g id="Layer_1" data-name="Layer 1">
    <g>
      <rect class="cls-1" width="542.5" height="542.5"/>
      <g>
        <path class="cls-2" d="M221.06,416.14c-4.01-6.45-11.03,1.25-15.43.77-2.94-.32-2.78-5-4.07-7.37-5.16,7.92-12.74,16.76-14.66,12.93-.5-1-.78-2.41-.24-3.58l3.44-7.41-13.24-1.63c-13.21-1.62-26.08-1.59-39.36-1.01-3.78.17-7.1-1.09-10.98.16-1.33.43-4.49-1.38-3.43-2.95,1.7-2.51,5.28-2.18,8.8-4.96l-20.84-2.58c-7.48-.93-13.99-2.75-21.86-2.37-3.09.15-8.26-.54-9.24-3.65-1.04-3.29,3.14-4.66,4.98-5.99,7.42-5.37,12.7-12.06,18.14-19.17,1.99-2.6,4.71-4.25,5.6-7.94-4.58.54-7.89,4.66-9.78,2.44-2.19-2.58,4.91-4.91,6.88-12.73,8.98-7.98,17.63-15.65,25.15-25.88-4.68.32-7.93,5.16-11.65,3.63-1.74-2,.89-5.27,2.59-6.69,9.24-7.7,17.78-15.48,24.81-25.25l9.56-13.29-14.82,1.42c-1.9.18-4.14-.71-4.5-2.23s.21-3.71,1.72-4.94c12.43-10.13,22.96-21.43,32.77-34.1l16.84-21.75-11.86,1.18c-1.38.14-2.71-.19-3.24-.85-3.3-4.12,5.07-8.86,10.2-12.66l24.15-17.88,11.42-10.62c8.75-8.14,17.36-15.54,27.57-21.7-3.31-3.52-4.19-6.19-2.91-9.07s4.06-4.44,8.38-5.59c-4.89-7.78-9.55-14.84-16.22-20.62-5.41-4.69-12-10.11-9.31-13.99,3.74-5.39,17.34,8.03,23.1,17.22,1.05-.02,2.4-.29,2.95-.06.62.26.65,2.06.92,2.69l5.7,13.25c9.01-.32,17.48-.99,25.92.67,5.04.99,9.81,1.84,14.9.17-7.99-4.85-4.25-13.34-1.71-22.98l-4.86,2.41c-.86-2.35-.05-4.72,1.34-6.72l12.65-18.13c1.02-1.47,2.94-2.69,4.06-2.37,1.9.54,3.1,2.83,2.32,5.12-4.17,12.16-10.51,23.14-12.67,36.91l18.22-19.81c4.05-4.41,10.09-8.68,12.46-6.77.99.8,1.72,2.94.66,4.11l-15.53,17.19-10.41,13.26c8.16,4.69,21.86-12.24,28.2-3.46,2.24,3.11,1.87,7.91-1.79,10.28-1.89,1.22-5.81,3.06-8.09,2.38-3.29-.97-6.78-2.4-10.1.55-1.06.94-1.12,3.76-1.17,5.5,10.82,7.55,20.05,16.28,29.61,25.32l9.52,11.41,26.68,28.3c1.1,1.17,1.67,2.11,1.72,3.41.04,1.04-.68,3.14-2.16,2.91l-9.3-1.41,15.71,23.16c8.2,12.08,22.59,24.44,22.4,28.12-.05,1.05-1.39,3.1-2.69,3.02l-10.81-.67,8.02,13.59c5,8.48,10.13,16.8,16.83,23.96,2.71,2.9,1.77,6.11,1.02,8.89l17.17,21.92c.89,1.13,1.53,2.34,1.46,3.4s-1.43,2.7-2.71,2.91c-3.37.54-5.38-1.87-8.93-2.79l11.23,19.51c5.96,10.35,17.57,15.3,16.34,19.05-2.27,6.95-14.4.01-26.69,3.47l-26.42,3.29c4.04,3.97,10.55,4.26,10.45,6.73-.06,1.32-1.02,2.16-2.54,1.88l-9.98-1.85-20.96-2.3-26.91,2.37c1.35,1.91,3.24,2.13,3.63,4.7-7.67.98-13.91-5.11-13.73.74l-13.32-.38c-.6-.02-.88,2.01-.83,2.99-3.14-1.36-5.25-3.02-9.24-3.15l.85,3.99-36.27,1.74c-5.72.27-12.23,2.15-17.93.85-1.52-.69-3.35-3.47-6.38-2.31l-37.26-.26ZM292.86,406.62c5.39-1.1,11-.65,17.2-3.27l-7.45-14.72c-1.04-2.06-1.68-4.87.88-6.63,5.12,9.46,13.9,25.6,15.84,20.27.29-.8-5.6-4.87-5.53-12.06,6.27,3.5,8.85,12.01,13.26,10.62,3.4-1.07,5.85-1.27,9.28-1.6,11.35-1.09,22.37-2.81,34.8-2.14-2-5.36-7.4-5.43-10.16-8.75-.75-.91.11-2.6.7-2.86s1.99-.55,2.83.15c8.48,7.05,22.78,12.7,31.9,5.97-3.2-1.66-5.97-1.64-8.23-4.79,5.08-2.46,10.08-1.52,15.15,1.11,6.81-2.51,13.27-.25,19.98-.8l13.77-1.12c-9.05-11.2-14.94-22.49-22.28-33.94-1.78-2.78-11.86-11.91-8.24-13.8,3.3-1.72,7.72,5.42,14.13,5.72l-18.93-29.73-18.75-29.16c-2.28-3.55-4.64-5.18-8.46-6.73l-5.4-8.2c-.64-.97-.48-2.75.17-2.88,4.11-.82,10.64,7.09,20.82,6.52l-15.75-23.16-18.23-25.75c-2.14-3.03-6.06-5.05-5.12-10.02,2.91.71,4.89,3.49,9.3,2.9l-17.64-19.44c-8.33-9.18-17.03-17.54-27.01-25.08l-12.04-9.09c-15.24-2.29-29.97-2.05-45.66-2.47-12.11,5.63-22.99,13.24-32.75,22.87-2.87,3.42-5.44,8.09-9.35,9.95-2.09.99-4.47,1.15-6.77,2.85-6.96,5.13-13.13,10.87-19.3,17.01,5.34,3.41,8.88-3.55,13.09-1.62-9.56,15.78-20.64,29.34-31.99,43.41-4.81,5.96-9.11,11.57-15.44,16.36,4.1,2.36,7.08-.26,9.93-.27,5.65-.02,9.69-.42,14.74-4.79.94,4-1.21,5.23-3.6,7.43-10.99,10.14-21.58,20.86-29.01,33.96-7.33,12.91-16.2,23.63-26.43,34.6,5.94.5,8.74-2.2,13.32-2.73l-12.6,15.47c-8.06,9.9-14.87,20.11-24.17,29.23,14.8,4.82,29.56-1.43,41.61,1.63,4.76,1.21,8.16,3.87,13.25.9.56-.33,2.44.32,2.28,1.11-.29,1.48-3.95,2.08-2.59,5.16,1.67,3.79,7.09-4.38,11.97-2.46-1.21,2.51-3.78,4.02-4.32,7.1,8.13,1.01,15.18-1.81,22.87-2.33,4.69-.32,9.73,3.42,14.13,4.45l10.32-18.48c.68-1.21,1.85-1.63,3.06-1.22.81.27.54,1.85.22,2.75l-6.26,17.6,2.28,8.89c11.54-6.76,20.79-23.46,27.68-36.08.96-1.75,1.6-3.68,4.14-3.47-.63,3.94-1.57,7.85-3.26,11.61l-8.88,19.88c4.84,2.28,9.47.83,14.02,1.83l14.48,3.18,17.61-.32c7.22-.13,13.46.94,20.61-.52Z"/>
        <path class="cls-2" d="M274.52,109.33c-3.3,9.3-1.08,27.63-3.97,27.74-.69.03-2.08.02-2.36-1.49l-3.21-17.47-3.79-22c-.96-5.55.68-11.07,3.71-11.48,5.36-.73,6.46,15.14,9.62,24.71Z"/>
        <path class="cls-2" d="M280.79,136c-2.31-5.8-4.23-11.57-3.36-17.18l2.07-13.34c.65-4.17,2.68-7.32,3.34-11.7.4-2.64,1.98-6.86,4.73-7.64s4.64,3.02,4.24,5.47l-2.76,17.1-2.51,7.47c-2.26,6.71-3.47,12.53-5.75,19.81Z"/>
        <path class="cls-2" d="M282.74,432.09c-15.68.2-30.17.99-45,3.18-1.06.16-2.64-.87-3.01-1.46-.48-.77.14-2.82,1.83-3.11,14.16-2.48,28.44-5.13,42.83-3.9l23.83,2.05c.68.06,1.02.98,1.01,1.31,0,.49-.78,1.67-1.7,1.68l-19.79.25Z"/>
        <path class="cls-2" d="M70.2,404.96l-13.93.73-21.58,2.31c-1.2.13-2.39-.75-2.8-1.38-3.76-5.76,15.24-5.43,23.45-6.45,6.83-.84,13.17-1.26,20.04-.13l17.45.28c1.05.02,2.01,1.21,1.97,1.82-.28,3.94-16.05,2.38-24.6,2.82Z"/>
        <path class="cls-2" d="M106.78,420.46l-37.38,6.04c-1.53.25-3.39-.63-3.78-1.52-2.52-5.64,21.83-7.27,34.48-9.05,4.67-.66,9.36-1.53,13.55,1.78-1.31,2.34-3.97,2.28-6.86,2.75Z"/>
        <path class="cls-2" d="M496.19,403.02l-18.81-1.77-18.83-.99c-1.37-.07-1.93-.88-1.83-2.11.22-2.54,12.52-3.48,21.68-2.3l18.32,2.36c1.22.16,2.08,1.13,2.04,1.99-.03.8-.71,3-2.57,2.83Z"/>
        <path class="cls-2" d="M417.42,427.22c1.38,1.26-2.36,3.42-4.2,3.07l-33.23-6.33c-.87-.26-.29-2.59.35-2.91,4.31-2.17,30.6.28,37.09,6.18Z"/>
        <path class="cls-2" d="M454.1,420.01l-30.02-4.05c-.68-.35-.69-2.68-.1-3.14,4.04-3.14,24.55.17,34.12,3.06,1.2.36.84,2.8.16,3.29-.95.68-2.15,1.11-4.16.84Z"/>
        <path class="cls-2" d="M146.41,429.44c-7.42.76-18.14,3.13-18.53-.28-.12-1.08.82-2.34,2.27-2.66l14.38-3.12c4.88-1.06,10.37.15,15.15,2.42-4.21,3.81-8.81,3.17-13.27,3.63Z"/>
        <path class="cls-2" d="M98.27,340.47c-5.09,6.14-19.59,9.75-22.61,5.07,1.74-4.47,14.73-6.18,22.61-5.07Z"/>
        <path class="cls-2" d="M98.49,328.93l-11.71-.06c-.78,0-1.23-2-1.06-2.65.98-3.74,12.1-4.49,18.32-.53-.81,2.23-2.96,3.25-5.55,3.24Z"/>
        <path class="cls-2" d="M461.73,348.18c.25,4.86-14.37,2.93-17.28-4.6,7.21-1.01,17.12,1.52,17.28,4.6Z"/>
        <path class="cls-2" d="M378.62,340.66c-1.21.47-2.08.63-2.56.54-.79-.16-.92-1.18-1.34-1.78l-7.56-10.63c-2.76-3.89-6.7-6.77-11.42-6.9,1.88,5.56,3.82,9.78,2.58,15.25-3.66-4.64-5.29-9.19-7.25-14.01l-8.36-20.62c-.85-2.08-1.1-4.55-1.24-6.88,7.4,5.18,9.82,17.81,20.44,22.95-.2-7.96-7.09-15.69-2.91-15.63,5.87,6.05,8.98,13.8,12.93,21.05,3.02,5.54,6.44,10.32,6.69,16.66Z"/>
        <path class="cls-2" d="M233.42,267.24c1.3.88-7.53,15.77-17.98,20.21-3.69,1.57-6.46,2.86-9.89,5.51l-6.68,5.16c-1.32,1.02-3.08,1.06-4,.41s-1.41-3.63-.39-4.52c3.42-2.99,2.01-7.11,3.36-10.27,4.98-11.59,11.49-22.34,19.54-32.36.64,5.26-2.67,8.83-4.63,12.92-3.41,7.12-7.55,13.24-8.16,21.09,2.78-2.17,5.4-1.67,7.61-2.48,11.65-4.25,18.27-17.66,21.21-15.66Z"/>
        <path class="cls-2" d="M156.02,366.61l4.82-14.4c-3.05,1.52-4.25,3.86-5.62,6.39-.79,1.46-4.15,2.02-4.16.72-.06-4.54,3.01-8.13,5.7-11.25l13.84-16.03c.23-.27,1.74-.28,1.92-.02.27.38.43,1.38.06,2.09-2.96,5.65-4.37,11.5-6.6,17.46l-6.21,16.58c-.55,1.48-1.64,2.15-2.64,1.9-1.36-.34-1.64-1.85-1.1-3.44Z"/>
        <path class="cls-2" d="M264.5,218.65c.93,6.38-2.45,15.62-4.99,15.46-2.35-.15.98-5.25-2.05-7.26-.73,2.55-1.75,3.3-2.68,3.51s-2.45-1.8-2.01-2.95c3.56-9.39,5.95-19.17,11.91-28.27,2.86,4.92-.75,9.11-1.78,13.33l-.9,3.69c-.2.81,1.66,1.85,2.5,2.48Z"/>
        <path class="cls-2" d="M152.33,340.16c-3.76,5.25-6.81,10.09-11.6,13.67-.61.45-2.54.25-2.69-.33s-.07-2.17.46-2.85l27.16-34.97c-.69,9.84-7.84,16.82-13.32,24.48Z"/>
        <path class="cls-2" d="M329.31,362.92c1.48,3.84,2.29,8.02,1.03,11.27-1.61.46-3.09-1.61-3.54-2.99l-10.81-32.8c-.46-1.39.17-2.35.85-2.51.99-.23,2.27.57,2.7,1.68l9.77,25.35Z"/>
        <path class="cls-2" d="M406.28,364.98l-1.37-5.66-12.72-20.48c-.54-.87-.76-2.42-.52-3.13.26-.76,1.77-1.87,2.39-1.33l6.38,9.13c4.14,5.93,8.65,10.8,9.02,18.52.03.7.47,1.41-.15,2.08s-1.19,1-3.03.88Z"/>
        <path class="cls-2" d="M234.54,215.47l-8.93,12.35c-.47.65-2.01.86-2.38.51s-.23-1.28-.11-2.17l11.93-23.31c-7.83,2.7-12.38,15.4-15.86,13.41-3.1-1.78,14.27-21.61,21.16-28.41,4.89,1-1.96,7.82-5.7,14.93,2.46-.64,3.99-2.21,6.02-1.52.96,2.78-1.74,5.12-2.3,7.29-.81,3.16-1.92,4.26-3.84,6.91Z"/>
        <path class="cls-2" d="M318.08,302.04c.36,1.33-.23,2.74-.51,3.17-.37.57-2.58-.09-2.89-1.02l-5.1-15.47c-1.28-3.87-2.17-7.38-1.71-11.58,1.77-.08,3.63.85,4.15,2.75l6.06,22.16Z"/>
        <path class="cls-2" d="M325,239.31c.91,1.73.51,2.74.44,3.88-.09,1.45-2.38,2.37-2.89,1.53l-5.19-8.73-5.54-13.44c-.31-.74-.05-2.04.08-2.8s.93-.65,1.62-.58c1.16.12,1.39.96,2.01,2.13l9.48,18Z"/>
        <path class="cls-2" d="M244.95,319.99c-1.69,4.83-3.69,8.73-7.92,12.01-.13-4.09,1.28-7.38,2.76-11.08l7.11-17.7c.33-.83,1.35-1.88,1.91-2.04.71-.21,2.23,1.38,1.88,2.4l-5.74,16.42Z"/>
        <path class="cls-2" d="M345.6,366.76c.65,1.38.32,2.76,0,3.58-.27.67-1.56,1.31-2.33.76-.56-.4-1.65-1.4-2.09-2.36l-8.92-19.79-.39-2.18c-.07-.4,2-.97,2.4-.55,1.61,1.67,3.6,4.17,4.72,6.52l6.62,14.01Z"/>
        <path class="cls-2" d="M327.49,219.96l-7.1-9.37-7.12-11.02c-.61-.95.18-1.27.76-1.81.63-.59,1.77-.99,2.43-.24,6.12,6.95,16.29,22.85,13.88,23.61-.96.3-1.87.11-2.84-1.17Z"/>
        <path class="cls-2" d="M325.17,193.68c.86,2.58,4.49,5.78,1.92,8.85-5.4-4.5-7.86-11.1-12.32-16.27-2.25-2.61-5.18-4.69-5.22-8.09,4.71-.86,5.39,4.95,6.57,7.64,3.92,1.3,7.1,2.03,9.05,7.87Z"/>
        <path class="cls-2" d="M356.54,263.55c.52.99.24,2.34-.15,2.61s-1.76.09-2.2-.51l-8.03-10.87c-.93-1.25-1.58-3.06-.98-3.91,1.07-1.5,3.88-1.59,4.77.11l6.58,12.56Z"/>
        <path class="cls-2" d="M202.67,364.64c-3.87-8.91-.11-12.89,5.07-21.29,2.2,3.02.5,6.02-.41,8.54l-4.65,12.76Z"/>
      </g>
    </g>
  </g>
</svg>