<?xml version="1.0" encoding="UTF-8"?>
<svg id="Layer_2" data-name="Layer 2" xmlns="http://www.w3.org/2000/svg" viewBox="0 0 164.33 160.54">
  <g id="Layer_1" data-name="Layer 1">
    <g>
      <path d="M145.66,114.31c-.34.41-1.25.24-1.5.04-.29-.23-.5-1.09-.14-1.53l7.11-8.49,1.04-.53c.23-.12,1.01.29.87.6-.97,2.23-2.54,4.12-4.11,6l-3.27,3.92Z"/>
      <path d="M160.77,125.24l-6.68,2.06c-.59.18-1.28-.17-1.51-.55-.22-.36-.1-1.3.54-1.5l9.59-2.99c.42-.13.84.18,1.11.3s.73.73.36,1.12c-.78.84-2.15,1.17-3.41,1.56Z"/>
      <path d="M89.73,12.36c.41.66-.04,1.45-.47,1.68-.36.19-1.12.23-1.51-.39l-5.04-8.15c-.31-.5.09-1.45.45-1.57s1.21-.05,1.53.45l5.04,7.99Z"/>
      <path d="M81.66,24.09c.18,1.75-4.31.59-7.36,0-1.87-.36-4.36-.54-4.26-1.78.17-2.02,7.43-.19,10.96.78.39.11.63.74.66,1Z"/>
      <path d="M104.27,10c-.18.57-.9.75-1.3.75-.37,0-1.02-.57-.87-1.12.82-3.08,1.85-6.06,3.22-8.96.19-.41.82-.71,1.13-.66.45.09.78.78.61,1.33l-2.78,8.66Z"/>
      <path d="M46.85,151.85c.41-1.93,2.79-2.66,4.29-3.5,4-2.25,7.94-3.87,12.45-4.77,6.68-1.34,13.31-1.39,20.11-1.18l5.52-.18,14.61-.83c4.95-.28,9.67-.9,14.43-2.14,4.49-1.17,9.95-3.85,7.36-7.26s-10.68-4.42-15.39-4.59l-16.05-.56c-4.9-.17-12.13-1-15.38-4.11-1.92-1.84-2.2-4.54-.51-6.69,2.82-3.58,8.27-5.12,12.91-6.19l7.72-1.78c2.08-.48,4.11-1.3,5.73-2.65,1.37-1.14,1.23-2.95.1-4.22-2.75-3.08-6.28-2.79-6.4-4.53-.03-.45.77-1.3,1.39-1.13,3.87,1.06,8.75,4.35,8.32,8.46s-5.84,5.93-9.94,6.92l-10.29,2.48c-3.09.75-8.38,3.3-8.18,5.81.23,2.9,6.89,4.45,10.52,4.74l5.64.45,6.82.23c7.5.25,17.9-.13,23.76,4.47,1.53,1.2,2.52,2.79,2.5,4.67-.09,8.12-18.72,9.92-26.58,10.33l-13.62.73-6.19.06-8.95.15c-8.57.15-17.33,2.62-24.35,7.49-.62.43-2.48.15-2.36-.69Z"/>
      <path d="M35.75,151.97l-6.39,8.57h3.19l2.37-3.1,12.24-16.24,15.36-19.89,3.08-3.69,12.22-15.86c.04-.19.11-.39.23-.56l13.1-17.41,6.48-7.73c1.89,1.47,2.99,3.05,4.3,4.74l9.7,12.51,3.83,5.46.03.22,13.38,17.18-.2.15,17.56,24.53,6.18,8.39,7.55,11.3h3.21l-6.75-9.99-9.32-12.93-13.69-19.25-12.85-17.38-4.11-5.41c-5.49-7.85-11.28-15.25-17.76-22.41l.04-21.89,23.37-8.59c.99-.36,1.57-.76,2.61-1.01,3.56-.85,6.96-2.52,10.18-4.26.77-.42,1.3-1.29,1.14-1.97-.14-.59-.69-1.3-1.45-1.63-11.46-4.88-23.34-8.22-35.53-10.85-.54-.12-.87-1.2-1.7-.64-.33.22-.92.52-.89,1.22l.1,2.73-.12,5.94-.47,35.56v5.97s-11.37,14.47-11.37,14.47l-16.72,22.13-17.68,22.9-1.91,2.38c-2.16-2.94-5.58-4.17-9.46-3.85-.86-7.73-8.47-11.19-15.64-9.13-4.73,1.36-8.35,4.95-9.3,9.94-4.24-.85-8.42.47-11.35,3.46-2.17,2.22-3,5.22-2.34,8.35,1.17,5.63,7.45,8.23,13.29,8.14l11.35-.18,10.9-.39ZM99.05,25.52l11.65,2.87c7.43,2.12,14.58,4.32,21.96,7.31l-8.31,3.58c-.69.63-1.48.99-2.5.85l-22.89,8.27.08-22.88ZM2.95,144.44c-.72-2.25-.27-4.38,1.03-6.05,2.31-2.96,7.18-4.46,10.33-3.25.57.22,1.21.06,1.53-.19.54-.42.49-.92.53-1.61.36-5.71,7.75-10.26,14.33-8.13,3.36,1.08,5.67,3.99,5.53,7.56-.02.58-.28,1.13.14,1.59.25.28.81.5,1.41.32,3.27-.97,7.1.04,8.85,3.06l-8.74,11.51-3.93.25-19.33.47c-4.86.12-10.31-1.23-11.68-5.53Z"/>
    </g>
  </g>
</svg>