<?xml version="1.0" encoding="UTF-8"?>
<svg id="Layer_2" data-name="Layer 2" xmlns="http://www.w3.org/2000/svg" viewBox="0 0 76.24 39.8">
  <g id="Layer_1" data-name="Layer 1">
    <g>
      <path d="M67.52,39.47l-11.23.25-9.35-.21-13.9-.03-12.28-.17-12.59.23-5.59.26c-1.21.06-2.17-.52-2.17-1.62,0-1.18.83-1.8,2.12-1.81l13.36-.12,7.2-.08c3.15-.03,6.12.16,9.28.25l12.93.35,4.33.06,15.56-.37,9.26-.26c1.13-.03,1.74.74,1.79,1.72.06,1.13-.83,1.76-2.07,1.72l-6.65-.18Z"/>
      <path d="M74.12,0c1.12-.03,1.84.78,1.84,1.72,0,1.1-.88,1.75-2.13,1.75h-11.93s-8.32-.14-8.32-.14l-25.26-.15c-5.03-.03-9.79-.08-14.83.08l-11.49.38c-.92.03-1.63-.52-1.88-1.15S-.03.42.94.39L15.44.07l6.66-.02c3.6,0,6.99.14,10.61.24l11.03.3c1.4.04,2.55.15,3.97-.09l4.23.22,10.62-.39L74.12,0Z"/>
      <path d="M22.26,21.31c-2.64,0-4.99,0-7.47,0l-7.63.03-5.78.14c-.98.02-1.21-1.05-1.15-1.86s.86-1.56,1.97-1.46c4.25.39,8.33-.01,12.59.06l20.89.36,6-.07,6.97-.04,25.65-.41c1.17-.02,1.74,1.12,1.68,1.87-.09,1.1-.99,1.66-2.15,1.56-4.03-.32-7.92.08-11.94.05l-7.25-.06-3.7.02h-6.63s-14.58-.19-14.58-.19h-7.47Z"/>
    </g>
  </g>
</svg>