<?xml version="1.0" encoding="UTF-8"?>
<svg id="Layer_2" data-name="Layer 2" xmlns="http://www.w3.org/2000/svg" viewBox="0 0 234.83 257.12">
  <g id="Layer_1" data-name="Layer 1">
    <g>
      <path d="M86.76,188.64l-36.31,65.88c-1.16,2.11-1.8,2.96-4.2,2.47-1.88-.39-3.16-2.64-1.86-5.04l39.12-71.88-18.59,7.5c-4.39,1.77-9.42-.49-13.7-2.38l-28.77,16.13c-3.97,2.22-6.96,4.86-11.98,3.41-6.32-1.82-11.79-9.77-10.19-16.99.61-2.76,3.36-4.32,6.07-6.44l28.65-22.42c-.1-4.42-.87-9.75,2.27-12.85,28.63-28.16,57.54-55.4,84.14-85.47,12.33-13.93,28.89-20.78,47.32-13.57,23.38,9.14,37.45,34.11,34.02,59.25-2.35,17.19-14.14,28.96-30.04,34.41l-65.08,27.65c-3.72,1.58-7.21,2.45-10.68,5.32l35.31,77.76c.79,1.73.91,3.12.07,4.44s-2.42,1.47-3.83,1.09c-1.73-.47-1.75-1.89-2.54-3.61l-31.5-68.97-6.56,69.01c.22,2.55-1.78,3.94-3.79,3.74s-3.74-2.88-2.46-5.27l5.11-63.15ZM181.81,129.24c8.93-5.89,13.92-15.39,14.93-25.91,1.93-20.14-9.26-39.95-27.34-48.77-10.33-5.04-21.49-5.27-32.06.54-7.89,4.34-14.78,12.91-16.77,23.81-3.32,18.19,4.28,37.19,19.21,48.18,12.49,9.2,28.71,10.92,42.02,2.14ZM120.83,155.45l33.39-14.62c-8.06-2.34-13.76-5.09-19.55-9.57-15.74-12.55-22.92-31.39-20.87-52.59l-71.93,71.38c-3.33,14.52,5.21,28.57,19.75,31.92l59.21-26.53ZM14.63,198.57l31.05-17.89c-4.81-4.16-7.36-8.42-9.39-14.78l-29.63,23.25c-.47,5.16,2.92,9.41,7.96,9.42Z"/>
      <path d="M186.83,23.37c-.93,2.24-2.65,2.9-4.42,2.48-1.55-.37-2.82-2.56-1.94-4.59l7.82-17.96c.65-1.51,3-1.35,3.76-.73,1.11.9,2.32,2.64,1.61,4.36l-6.82,16.44Z"/>
      <path d="M218.14,51.58c-2.42,1.27-3.99,1.66-5.44.09-1.17-1.27-.99-4.06.98-5.06l16.38-8.33c1.85-.94,3.5.16,4.44,1.64.75,1.18.29,2.92-1.61,3.92l-14.74,7.73Z"/>
      <path d="M142.95,19.2c.65,2.14-.6,3.47-1.83,4.26-.98.62-3.34.29-3.93-1.65l-5.32-17.45c-.53-1.74.31-3.46,1.77-4.13,1.21-.56,3.47-.13,4.1,1.9l5.22,17.07Z"/>
      <path d="M167.96,107.33c-13.79,5.06-28.56.25-37.57-10.56,2.31-6.41,6.36-10.45,11.14-14.4,12.59-10.4,30.56-8.49,41.89,3.23,1.19,1.23,2.21,2.09,2.44,3.65.37,2.56-8.35,14.57-17.9,18.07ZM178.49,90.32c-4.43-5.93-14.19-9.49-22.1-8.11-6.41,1.12-15.86,5.89-17.96,13.12,4.46,6.14,14.45,8.98,22.32,7.72,6.09-.97,14.99-5.77,17.74-12.73Z"/>
      <circle cx="158.45" cy="92.33" r="7.51"/>
    </g>
  </g>
</svg>