<?xml version="1.0" encoding="UTF-8"?>
<svg id="Layer_2" data-name="Layer 2" xmlns="http://www.w3.org/2000/svg" viewBox="0 0 1451.48 350.69">
  <g id="Layer_1" data-name="Layer 1">
    <g>
      <g>
        <path d="M1421.88,271.01c-6.3-.07-10.92-4.91-14.82-9.17l-36.71-40.2c-.75-.83-2.23-1.94-3.01-1.88-.85.07-1.73,2.14-1.74,3.24l-.18,32.07c-.07,12.52,12.39,8.3,14,11.8.55,1.19.22,4.46-1.91,4.46h-48.19c-1.35,0-1.64-4.84-.37-5.21,7.34-2.19,15.62-1.23,15.68-12.11l.39-69.08.04-51.89c0-5.69.38-12.13-1.75-17.31-2.72-6.61-15.38-1.91-16.82-6.55-.67-2.14.41-3.82,2.74-4.67l32.17-11.8c1.32-.49,2.3-1.53,3.46-.9.97.53,2.44,2.15,2.34,3.69l-1.31,19.16.11,98.78,22.88-21.48,16.55-17.45c1.64-1.73,1.88-4.66.8-6.74-2.44-4.73-10.25-1.19-10.09-6.22.07-2.16,1.43-2.87,3.91-2.86l43.52.26c1.63,0,1.6,4.81-.44,5.09-7.2.98-13.04,3.89-18.4,8.85l-37.96,35.15,30.44,32.67,16.15,15.87c9.14,8.96,19.69,5.52,17.96,11.58-.35,1.23-2,3.15-3.94,3.13l-25.47-.28Z"/>
        <path d="M920.33,162.22c-.8,3.85-9.81,1.82-13.2,10.33l-46.09,115.68c-8.03,20.16-22.22,45.07-44.22,39.95-4.63-1.08-8.83-3.19-9.9-7.9-.73-3.2,1.26-6.98,3.34-8.49,8.39-6.11,21.03,7.32,31.93-8.7,6.41-9.42,10.69-19.8,13.82-30.92l-18.92-43.08-22.37-52.59c-6.89-16.2-18.39-8.72-17.73-14.93.24-2.25,1.46-2.87,4.04-2.86l48.07.25c1.42,0,1.6,3.16,1.05,4.05-1.74,2.81-7.01,1.36-9.72,4.08-3.17,3.17-1,11.04,1.72,17.58l25.53,61.31,15.39-38.96c3.56-8.92,6.02-17.73,8.13-27.13.86-3.85,1-7.36-1.55-10.89-3.77-5.21-11.91-3.32-13.49-5.73-.68-1.04-.3-4.45,1.21-4.45l41.19-.11c1.85,0,1.99,2.48,1.77,3.52Z"/>
        <path d="M615.66,271.32c-1.83,0-2.1-4.79-.69-5.2l13.18-3.82c3.38-.98,5.22-5.52,5.31-9.25l.47-20.06.07-20.96-.25-14.87c-.05-3.11-1.88-4.69-4.85-4.71l-45.26-.36-33.22.15c-1.97,0-4.06.73-5.14,1.61-1.72,1.41-2.06,3.75-2.06,6.17l-.06,40.2c-.01,6.76-.67,15.26,3.81,20.71,3.96,4.82,21.47,2.98,15.41,10.03-1.69,1.96-4.28.77-6.47.76l-55.95-.26c-3.67-8.88,10.21-4.59,15.47-10.96,3.44-4.17,3.29-10.04,3.32-15.39l.51-89.98-.54-25.19c-.09-4.42.14-10.24-2.99-13.81-5.64-6.43-17.62-2.05-17.28-8.5.14-2.59,1.88-3.21,4.46-3.22l51-.14c2.92,0,6.13-1.35,8.29,1.4.63.81.27,3.11-.25,3.92-1.88,2.91-14.37,1.36-16.71,8.67-1.57,4.91-1.82,10.56-1.82,15.77l-.02,40.96c0,3.73,2.23,5.91,5.65,5.91h54.12s26.27,0,26.27,0c2.65,0,4.38-2.27,4.38-4.82v-38.96s-.66-14.9-.66-14.9c-.2-4.46-2.57-7.89-6.78-8.91l-11.22-2.72c-1.38-.33-2.53-2.03-2.57-3.04-.03-.94,1.48-2.97,2.87-2.97l60.04-.11c1.53,0,1.95,2.2,1.82,3.03-.19,1.19-.85,2.83-2.61,3.23l-9.7,2.18c-4.07.92-6.49,5.69-6.53,10.29l-.59,68.45v15.71s.4,44.62.4,44.62c.04,4.9,2.12,9.87,6.85,11.04l11.24,2.79c1.48.37,1.08,3.11.63,4.11-.76,1.68-3,1.56-5.06,1.55l-56.3-.16Z"/>
        <path d="M745.28,266.76c-10.59,6.9-22.87,8.9-34.36,5.24s-16.85-12.66-16.74-23.95c.08-8.4,2.64-15.19,9.14-20.79,5.48-4.72,11.7-8.84,18.9-10.86l36.68-10.3c.87-15.37.75-34.97-12.54-39.51-7.21-2.46-14.48-1.8-21.28,2.61-11.27,7.31-6.55,19.32-15.39,23.14-3.13,1.35-7.44.4-9.21-2.88-3.41-6.33-1.14-13.89,4.2-18.85,14.72-13.7,35.87-18.34,55.16-12.37,9.92,3.07,16.59,10.95,18.66,20.87,1.66,7.96,1.11,15.75,1.13,23.93l.1,39.89c0,3.33.52,7.24,1.88,10.19,2.71,5.88,10.26,7.43,15.52,4.44,1.19-.68,2.81-.15,3.48.21,5.08,2.76-10.41,15.38-24.04,15.25-8.96-.09-15.07-6.47-16.4-15.95l-14.86,9.69ZM758.11,247.35c2.87-9.64.34-20.19.8-29.88.28-5.9-20.69,1.47-30.8,6.68s-15.54,18.4-8.64,28.46c7.72,11.26,31.95,5.66,38.64-5.26Z"/>
        <path d="M1116.32,266.9c-10.67-9.03-10.55-26.36-2.27-36.63,5.74-7.12,13.5-11.52,21.96-13.98l35.11-10.21c.89-9.13.76-18.08-1.08-26.71-2.02-9.44-9.83-14.42-19.08-14.25-11.65.21-20.47,7.46-22.2,19.09-.49,3.29-2.57,5.97-5,7.23-2.79,1.45-7.28,2.4-9.65-.74-3.96-5.25-2.43-13.64,2-18.51,15.93-17.53,47.51-21.8,64.7-9.99,8.83,6.07,11.12,16.33,11.23,26.68l.6,58.91c.04,4.24,2.3,8,4.8,9.46,8.08,4.73,14.41-4.09,15.99,1.86.45,1.7.07,3.72-1.49,4.91-6.43,4.93-13.67,8.92-21.99,9.25-9.4.37-15.54-6.52-17.65-16.31l-18.34,12.02c-11.64,5.9-26.66,7.2-37.63-2.09ZM1170.72,246.96c2.5-10.41.44-21.17.5-32.36-11.14,1-20.3,4.2-29.54,9.12-10.7,5.69-15.48,19.37-7.95,29.53,9.67,13.05,35.07,1.7,36.99-6.29Z"/>
        <path d="M988.59,268.01c-8.88,4.51-17.08,6.12-26.74,5.62-12.55-.65-29.31-2.95-32.82-13.66-3.86-11.78-2.52-26.74,3.39-26.76s2.12,17.55,19.38,27.02c9.53,5.24,21,5.48,29.93-.3,5.76-3.72,7.64-11.48,6.33-17.77-1.28-6.15-5.15-11.1-11.69-13.87l-17.57-7.42c-7.35-3.1-14.76-6.43-20.41-12.4-10.57-11.16-10.85-29.07-.59-40.56,12.73-14.25,37.32-14.65,55.71-7.39,10.86,4.28,6.98,27.9,1.83,28.45-2.45.26-2.95-1-3.95-3.26-2.63-5.98-6.22-12.45-11.59-16.52-7.62-5.77-18.73-5.08-26.22.34-3.85,2.79-5.46,7.64-5.28,11.86.85,20.1,39.17,20.86,52.2,36.93s6.8,40.17-11.92,49.68Z"/>
        <path d="M1247.13,233.09c5.2,14.67,17.27,22.76,32.14,24.04,22.03,1.89,33.73-11.69,36.98-8.89,6.06,5.21-18.4,29.07-51.2,24.98-21.63-2.7-37.94-19.46-42.49-40.43-4.81-22.17.24-44.93,16.33-61.06,25.69-25.76,70.12-15.72,75.81.21,2.65,7.41-.9,17.99-7.42,18.79-1.84.22-5.67-.19-6.23-2.63-3.33-14.34-15.68-22.85-30.66-20.88-24.33,3.2-32.6,39.49-23.25,65.87Z"/>
        <path d="M1060.09,253.79c6.25,8.38,19.65,6.4,30.35.93,1.6-.82,2.97.72,3.41,1.75.68,1.6.59,3.11-.94,4.53-7.76,7.19-17.16,12.19-27.89,12.6-9.27.35-18.49-1.9-24.23-9.4-3.89-5.09-5.8-12.03-5.84-18.73l-.44-73.42c-6.88-3.86-15.07.3-15.94-3.81-.3-1.41.35-2.72,2-3.55,15.38-7.65,25.14-21.85,30.01-38.21.5-1.68,1.72-2.75,3.01-2.92,1.83-.23,3.2,1.29,3.14,3.49l-.53,17.8c-.11,3.86-1.48,10.4,1.86,13.07s9.2.05,12.75.16l21.61.68c1.52,2.26,2.17,8.49-.63,9.99l-28.76.69c-1.66.04-6.71.49-6.72,2.42l-.2,65.79c-.02,5.53.73,11.78,3.98,16.14Z"/>
      </g>
      <g>
        <path d="M189.66,331.54c-4.01-6.45-11.03,1.25-15.43.77-2.94-.32-2.78-5-4.07-7.37-5.16,7.92-12.74,16.76-14.66,12.93-.5-1-.78-2.41-.24-3.58l3.44-7.41-13.24-1.63c-13.21-1.62-26.08-1.59-39.36-1.01-3.78.17-7.1-1.09-10.98.16-1.33.43-4.49-1.38-3.43-2.95,1.7-2.51,5.28-2.18,8.8-4.96l-20.84-2.58c-7.48-.93-13.99-2.75-21.86-2.37-3.09.15-8.26-.54-9.24-3.65-1.04-3.29,3.14-4.66,4.98-5.99,7.42-5.37,12.7-12.06,18.14-19.17,1.99-2.6,4.71-4.25,5.6-7.94-4.58.54-7.89,4.66-9.78,2.44-2.19-2.58,4.91-4.91,6.88-12.73,8.98-7.98,17.63-15.65,25.15-25.88-4.68.32-7.93,5.16-11.65,3.63-1.74-2,.89-5.27,2.59-6.69,9.24-7.7,17.78-15.48,24.81-25.25l9.56-13.29-14.82,1.42c-1.9.18-4.14-.71-4.5-2.23s.21-3.71,1.72-4.94c12.43-10.13,22.96-21.43,32.77-34.1l16.84-21.75-11.86,1.18c-1.38.14-2.71-.19-3.24-.85-3.3-4.12,5.07-8.86,10.2-12.66l24.15-17.88,11.42-10.62c8.75-8.14,17.36-15.54,27.57-21.7-3.31-3.52-4.19-6.19-2.91-9.07s4.06-4.44,8.38-5.59c-4.89-7.78-9.55-14.84-16.22-20.62-5.41-4.69-12-10.11-9.31-13.99,3.74-5.39,17.34,8.03,23.1,17.22,1.05-.02,2.4-.29,2.95-.06.62.26.65,2.06.92,2.69l5.7,13.25c9.01-.32,17.48-.99,25.92.67,5.04.99,9.81,1.84,14.9.17-7.99-4.85-4.25-13.34-1.71-22.98l-4.86,2.41c-.86-2.35-.05-4.72,1.34-6.72l12.65-18.13c1.02-1.47,2.94-2.69,4.06-2.37,1.9.54,3.1,2.83,2.32,5.12-4.17,12.16-10.51,23.14-12.67,36.91l18.22-19.81c4.05-4.41,10.09-8.68,12.46-6.77.99.8,1.72,2.94.66,4.11l-15.53,17.19-10.41,13.26c8.16,4.69,21.86-12.24,28.2-3.46,2.24,3.11,1.87,7.91-1.79,10.28-1.89,1.22-5.81,3.06-8.09,2.38-3.29-.97-6.78-2.4-10.1.55-1.06.94-1.12,3.76-1.17,5.5,10.82,7.55,20.05,16.28,29.61,25.32l9.52,11.41,26.68,28.3c1.1,1.17,1.67,2.11,1.72,3.41.04,1.04-.68,3.14-2.16,2.91l-9.3-1.41,15.71,23.16c8.2,12.08,22.59,24.44,22.4,28.12-.05,1.05-1.39,3.1-2.69,3.02l-10.81-.67,8.02,13.59c5,8.48,10.13,16.8,16.83,23.96,2.71,2.9,1.77,6.11,1.02,8.89l17.17,21.92c.89,1.13,1.53,2.34,1.46,3.4s-1.43,2.7-2.71,2.91c-3.37.54-5.38-1.87-8.93-2.79l11.23,19.51c5.96,10.35,17.57,15.3,16.34,19.05-2.27,6.95-14.4.01-26.69,3.47l-26.42,3.29c4.04,3.97,10.55,4.26,10.45,6.73-.06,1.32-1.02,2.16-2.54,1.88l-9.98-1.85-20.96-2.3-26.91,2.37c1.35,1.91,3.24,2.13,3.63,4.7-7.67.98-13.91-5.11-13.73.74l-13.32-.38c-.6-.02-.88,2.01-.83,2.99-3.14-1.36-5.25-3.02-9.24-3.15l.85,3.99-36.27,1.74c-5.72.27-12.23,2.15-17.93.85-1.52-.69-3.35-3.47-6.38-2.31l-37.26-.26ZM261.46,322.02c5.39-1.1,11-.65,17.2-3.27l-7.45-14.72c-1.04-2.06-1.68-4.87.88-6.63,5.12,9.46,13.9,25.6,15.84,20.27.29-.8-5.6-4.87-5.53-12.06,6.27,3.5,8.85,12.01,13.26,10.62,3.4-1.07,5.85-1.27,9.28-1.6,11.35-1.09,22.37-2.81,34.8-2.14-2-5.36-7.4-5.43-10.16-8.75-.75-.91.11-2.6.7-2.86s1.99-.55,2.83.15c8.48,7.05,22.78,12.7,31.9,5.97-3.2-1.66-5.97-1.64-8.23-4.79,5.08-2.46,10.08-1.52,15.15,1.11,6.81-2.51,13.27-.25,19.98-.8l13.77-1.12c-9.05-11.2-14.94-22.49-22.28-33.94-1.78-2.78-11.86-11.91-8.24-13.8,3.3-1.72,7.72,5.42,14.13,5.72l-18.93-29.73-18.75-29.16c-2.28-3.55-4.64-5.18-8.46-6.73l-5.4-8.2c-.64-.97-.48-2.75.17-2.88,4.11-.82,10.64,7.09,20.82,6.52l-15.75-23.16-18.23-25.75c-2.14-3.03-6.06-5.05-5.12-10.02,2.91.71,4.89,3.49,9.3,2.9l-17.64-19.44c-8.33-9.18-17.03-17.54-27.01-25.08l-12.04-9.09c-15.24-2.29-29.97-2.05-45.66-2.47-12.11,5.63-22.99,13.24-32.75,22.87-2.87,3.42-5.44,8.09-9.35,9.95-2.09.99-4.47,1.15-6.77,2.85-6.96,5.13-13.13,10.87-19.3,17.01,5.34,3.41,8.88-3.55,13.09-1.62-9.56,15.78-20.64,29.34-31.99,43.41-4.81,5.96-9.11,11.57-15.44,16.36,4.1,2.36,7.08-.26,9.93-.27,5.65-.02,9.69-.42,14.74-4.79.94,4-1.21,5.23-3.6,7.43-10.99,10.14-21.58,20.86-29.01,33.96-7.33,12.91-16.2,23.63-26.43,34.6,5.94.5,8.74-2.2,13.32-2.73l-12.6,15.47c-8.06,9.9-14.87,20.11-24.17,29.23,14.8,4.82,29.56-1.43,41.61,1.63,4.76,1.21,8.16,3.87,13.25.9.56-.33,2.44.32,2.28,1.11-.29,1.48-3.95,2.08-2.59,5.16,1.67,3.79,7.09-4.38,11.97-2.46-1.21,2.51-3.78,4.02-4.32,7.1,8.13,1.01,15.18-1.81,22.87-2.33,4.69-.32,9.73,3.42,14.13,4.45l10.32-18.48c.68-1.21,1.85-1.63,3.06-1.22.81.27.54,1.85.22,2.75l-6.26,17.6,2.28,8.89c11.54-6.76,20.79-23.46,27.68-36.08.96-1.75,1.6-3.68,4.14-3.47-.63,3.94-1.57,7.85-3.26,11.61l-8.88,19.88c4.84,2.28,9.47.83,14.02,1.83l14.48,3.18,17.61-.32c7.22-.13,13.46.94,20.61-.52Z"/>
        <path d="M243.12,24.73c-3.3,9.3-1.08,27.63-3.97,27.74-.69.03-2.08.02-2.36-1.49l-3.21-17.47-3.79-22c-.96-5.55.68-11.07,3.71-11.48,5.36-.73,6.46,15.14,9.62,24.71Z"/>
        <path d="M249.39,51.4c-2.31-5.8-4.23-11.57-3.36-17.18l2.07-13.34c.65-4.17,2.68-7.32,3.34-11.7.4-2.64,1.98-6.86,4.73-7.64s4.64,3.02,4.24,5.47l-2.76,17.1-2.51,7.47c-2.26,6.71-3.47,12.53-5.75,19.81Z"/>
        <path d="M251.34,347.49c-15.68.2-30.17.99-45,3.18-1.06.16-2.64-.87-3.01-1.46-.48-.77.14-2.82,1.83-3.11,14.16-2.48,28.44-5.13,42.83-3.9l23.83,2.05c.68.06,1.02.98,1.01,1.31,0,.49-.78,1.67-1.7,1.68l-19.79.25Z"/>
        <path d="M38.8,320.36l-13.93.73-21.58,2.31c-1.2.13-2.39-.75-2.8-1.38-3.76-5.76,15.24-5.43,23.45-6.45,6.83-.84,13.17-1.26,20.04-.13l17.45.28c1.05.02,2.01,1.21,1.97,1.82-.28,3.94-16.05,2.38-24.6,2.82Z"/>
        <path d="M75.39,335.85l-37.38,6.04c-1.53.25-3.39-.63-3.78-1.52-2.52-5.64,21.83-7.27,34.48-9.05,4.67-.66,9.36-1.53,13.55,1.78-1.31,2.34-3.97,2.28-6.86,2.75Z"/>
        <path d="M464.79,318.42l-18.81-1.77-18.83-.99c-1.37-.07-1.93-.88-1.83-2.11.22-2.54,12.52-3.48,21.68-2.3l18.32,2.36c1.22.16,2.08,1.13,2.04,1.99-.03.8-.71,3-2.57,2.83Z"/>
        <path d="M386.02,342.62c1.38,1.26-2.36,3.42-4.2,3.07l-33.23-6.33c-.87-.26-.29-2.59.35-2.91,4.31-2.17,30.6.28,37.09,6.18Z"/>
        <path d="M422.7,335.41l-30.02-4.05c-.68-.35-.69-2.68-.1-3.14,4.04-3.14,24.55.17,34.12,3.06,1.2.36.84,2.8.16,3.29-.95.68-2.15,1.11-4.16.84Z"/>
        <path d="M115.01,344.83c-7.42.76-18.14,3.13-18.53-.28-.12-1.08.82-2.34,2.27-2.66l14.38-3.12c4.88-1.06,10.37.15,15.15,2.42-4.21,3.81-8.81,3.17-13.27,3.63Z"/>
        <path d="M66.87,255.86c-5.09,6.14-19.59,9.75-22.61,5.07,1.74-4.47,14.73-6.18,22.61-5.07Z"/>
        <path d="M67.09,244.32l-11.71-.06c-.78,0-1.23-2-1.06-2.65.98-3.74,12.1-4.49,18.32-.53-.81,2.23-2.96,3.25-5.55,3.24Z"/>
        <path d="M430.33,263.57c.25,4.86-14.37,2.93-17.28-4.6,7.21-1.01,17.12,1.52,17.28,4.6Z"/>
        <path d="M347.22,256.06c-1.21.47-2.08.63-2.56.54-.79-.16-.92-1.18-1.34-1.78l-7.56-10.63c-2.76-3.89-6.7-6.77-11.42-6.9,1.88,5.56,3.82,9.78,2.58,15.25-3.66-4.64-5.29-9.19-7.25-14.01l-8.36-20.62c-.85-2.08-1.1-4.55-1.24-6.88,7.4,5.18,9.82,17.81,20.44,22.95-.2-7.96-7.09-15.69-2.91-15.63,5.87,6.05,8.98,13.8,12.93,21.05,3.02,5.54,6.44,10.32,6.69,16.66Z"/>
        <path d="M202.02,182.63c1.3.88-7.53,15.77-17.98,20.21-3.69,1.57-6.46,2.86-9.89,5.51l-6.68,5.16c-1.32,1.02-3.08,1.06-4,.41s-1.41-3.63-.39-4.52c3.42-2.99,2.01-7.11,3.36-10.27,4.98-11.59,11.49-22.34,19.54-32.36.64,5.26-2.67,8.83-4.63,12.92-3.41,7.12-7.55,13.24-8.16,21.09,2.78-2.17,5.4-1.67,7.61-2.48,11.65-4.25,18.27-17.66,21.21-15.66Z"/>
        <path d="M124.62,282.01l4.82-14.4c-3.05,1.52-4.25,3.86-5.62,6.39-.79,1.46-4.15,2.02-4.16.72-.06-4.54,3.01-8.13,5.7-11.25l13.84-16.03c.23-.27,1.74-.28,1.92-.02.27.38.43,1.38.06,2.09-2.96,5.65-4.37,11.5-6.6,17.46l-6.21,16.58c-.55,1.48-1.64,2.15-2.64,1.9-1.36-.34-1.64-1.85-1.1-3.44Z"/>
        <path d="M233.11,134.05c.93,6.38-2.45,15.62-4.99,15.46-2.35-.15.98-5.25-2.05-7.26-.73,2.55-1.75,3.3-2.68,3.51s-2.45-1.8-2.01-2.95c3.56-9.39,5.95-19.17,11.91-28.27,2.86,4.92-.75,9.11-1.78,13.33l-.9,3.69c-.2.81,1.66,1.85,2.5,2.48Z"/>
        <path d="M120.93,255.55c-3.76,5.25-6.81,10.09-11.6,13.67-.61.45-2.54.25-2.69-.33s-.07-2.17.46-2.85l27.16-34.97c-.69,9.84-7.84,16.82-13.32,24.48Z"/>
        <path d="M297.91,278.32c1.48,3.84,2.29,8.02,1.03,11.27-1.61.46-3.09-1.61-3.54-2.99l-10.81-32.8c-.46-1.39.17-2.35.85-2.51.99-.23,2.27.57,2.7,1.68l9.77,25.35Z"/>
        <path d="M374.88,280.38l-1.37-5.66-12.72-20.48c-.54-.87-.76-2.42-.52-3.13.26-.76,1.77-1.87,2.39-1.33l6.38,9.13c4.14,5.93,8.65,10.8,9.02,18.52.03.7.47,1.41-.15,2.08s-1.19,1-3.03.88Z"/>
        <path d="M203.14,130.86l-8.93,12.35c-.47.65-2.01.86-2.38.51s-.23-1.28-.11-2.17l11.93-23.31c-7.83,2.7-12.38,15.4-15.86,13.41-3.1-1.78,14.27-21.61,21.16-28.41,4.89,1-1.96,7.82-5.7,14.93,2.46-.64,3.99-2.21,6.02-1.52.96,2.78-1.74,5.12-2.3,7.29-.81,3.16-1.92,4.26-3.84,6.91Z"/>
        <path d="M286.68,217.43c.36,1.33-.23,2.74-.51,3.17-.37.57-2.58-.09-2.89-1.02l-5.1-15.47c-1.28-3.87-2.17-7.38-1.71-11.58,1.77-.08,3.63.85,4.15,2.75l6.06,22.16Z"/>
        <path d="M293.6,154.7c.91,1.73.51,2.74.44,3.88-.09,1.45-2.38,2.37-2.89,1.53l-5.19-8.73-5.54-13.44c-.31-.74-.05-2.04.08-2.8s.93-.65,1.62-.58c1.16.12,1.39.96,2.01,2.13l9.48,18Z"/>
        <path d="M213.56,235.39c-1.69,4.83-3.69,8.73-7.92,12.01-.13-4.09,1.28-7.38,2.76-11.08l7.11-17.7c.33-.83,1.35-1.88,1.91-2.04.71-.21,2.23,1.38,1.88,2.4l-5.74,16.42Z"/>
        <path d="M314.2,282.15c.65,1.38.32,2.76,0,3.58-.27.67-1.56,1.31-2.33.76-.56-.4-1.65-1.4-2.09-2.36l-8.92-19.79-.39-2.18c-.07-.4,2-.97,2.4-.55,1.61,1.67,3.6,4.17,4.72,6.52l6.62,14.01Z"/>
        <path d="M296.09,135.36l-7.1-9.37-7.12-11.02c-.61-.95.18-1.27.76-1.81.63-.59,1.77-.99,2.43-.24,6.12,6.95,16.29,22.85,13.88,23.61-.96.3-1.87.11-2.84-1.17Z"/>
        <path d="M293.77,109.08c.86,2.58,4.49,5.78,1.92,8.85-5.4-4.5-7.86-11.1-12.32-16.27-2.25-2.61-5.18-4.69-5.22-8.09,4.71-.86,5.39,4.95,6.57,7.64,3.92,1.3,7.1,2.03,9.05,7.87Z"/>
        <path d="M325.14,178.95c.52.99.24,2.34-.15,2.61s-1.76.09-2.2-.51l-8.03-10.87c-.93-1.25-1.58-3.06-.98-3.91,1.07-1.5,3.88-1.59,4.77.11l6.58,12.56Z"/>
        <path d="M171.28,280.04c-3.87-8.91-.11-12.89,5.07-21.29,2.2,3.02.5,6.02-.41,8.54l-4.65,12.76Z"/>
      </g>
    </g>
  </g>
</svg>