<?xml version="1.0" encoding="UTF-8"?>
<svg id="Layer_2" data-name="Layer 2" xmlns="http://www.w3.org/2000/svg" viewBox="0 0 791.81 162.84">
  <defs>
    <style>
      .cls-1 {
        fill: #1b1b1b;
      }
    </style>
  </defs>
  <g id="Layer_1" data-name="Layer 1">
    <g>
      <g>
        <path class="cls-1" d="M74.05,129.44c-1.57-2.52-4.31.49-6.02.3-1.15-.13-1.09-1.95-1.59-2.88-2.01,3.09-4.97,6.54-5.72,5.05-.2-.39-.3-.94-.09-1.4l1.34-2.89-5.17-.63c-5.16-.63-10.18-.62-15.37-.39-1.48.06-2.77-.43-4.29.06-.52.17-1.75-.54-1.34-1.15.66-.98,2.06-.85,3.44-1.94l-8.14-1.01c-2.92-.36-5.46-1.07-8.54-.93-1.21.06-3.22-.21-3.61-1.43-.41-1.29,1.23-1.82,1.95-2.34,2.9-2.1,4.96-4.71,7.08-7.48.78-1.02,1.84-1.66,2.19-3.1-1.79.21-3.08,1.82-3.82.95-.86-1.01,1.92-1.92,2.69-4.97,3.51-3.12,6.88-6.11,9.82-10.1-1.83.12-3.1,2.02-4.55,1.42-.68-.78.35-2.06,1.01-2.61,3.61-3.01,6.94-6.04,9.69-9.86l3.73-5.19-5.78.56c-.74.07-1.61-.28-1.76-.87s.08-1.45.67-1.93c4.85-3.95,8.96-8.37,12.8-13.32l6.57-8.49-4.63.46c-.54.05-1.06-.08-1.27-.33-1.29-1.61,1.98-3.46,3.98-4.94l9.43-6.98,4.46-4.15c3.42-3.18,6.78-6.07,10.76-8.47-1.29-1.38-1.63-2.42-1.14-3.54s1.58-1.73,3.27-2.18c-1.91-3.04-3.73-5.79-6.33-8.05-2.11-1.83-4.69-3.95-3.64-5.46,1.46-2.1,6.77,3.14,9.02,6.72.41,0,.94-.11,1.15-.02.24.1.25.8.36,1.05l2.23,5.17c3.52-.13,6.82-.39,10.12.26,1.97.39,3.83.72,5.82.07-3.12-1.89-1.66-5.21-.67-8.97l-1.9.94c-.33-.92-.02-1.84.52-2.62l4.94-7.08c.4-.57,1.15-1.05,1.59-.93.74.21,1.21,1.11.91,2-1.63,4.75-4.1,9.03-4.95,14.41l7.11-7.73c1.58-1.72,3.94-3.39,4.87-2.64.39.31.67,1.15.26,1.6l-6.07,6.71-4.06,5.18c3.18,1.83,8.53-4.78,11.01-1.35.88,1.21.73,3.09-.7,4.01-.74.48-2.27,1.19-3.16.93-1.28-.38-2.65-.94-3.95.21-.41.37-.44,1.47-.46,2.15,4.23,2.95,7.83,6.36,11.56,9.89l3.72,4.45,10.42,11.05c.43.46.65.82.67,1.33.02.4-.26,1.22-.84,1.14l-3.63-.55,6.13,9.04c3.2,4.72,8.82,9.54,8.74,10.98-.02.41-.54,1.21-1.05,1.18l-4.22-.26,3.13,5.31c1.95,3.31,3.96,6.56,6.57,9.35,1.06,1.13.69,2.39.4,3.47l6.7,8.56c.35.44.6.91.57,1.33s-.56,1.05-1.06,1.13c-1.32.21-2.1-.73-3.49-1.09l4.39,7.62c2.33,4.04,6.86,5.97,6.38,7.44-.89,2.71-5.62,0-10.42,1.35l-10.32,1.28c1.58,1.55,4.12,1.66,4.08,2.63-.02.52-.4.84-.99.73l-3.9-.72-8.18-.9-10.5.93c.53.75,1.26.83,1.42,1.83-3,.38-5.43-1.99-5.36.29l-5.2-.15c-.23,0-.34.79-.32,1.17-1.22-.53-2.05-1.18-3.61-1.23l.33,1.56-14.16.68c-2.23.11-4.77.84-7,.33-.59-.27-1.31-1.36-2.49-.9l-14.55-.1ZM102.08,125.72c2.1-.43,4.29-.25,6.71-1.28l-2.91-5.75c-.41-.8-.66-1.9.34-2.59,2,3.69,5.43,9.99,6.19,7.91.11-.31-2.19-1.9-2.16-4.71,2.45,1.37,3.45,4.69,5.18,4.15,1.33-.42,2.28-.5,3.62-.63,4.43-.42,8.73-1.1,13.59-.84-.78-2.09-2.89-2.12-3.97-3.42-.29-.35.04-1.02.27-1.12s.78-.22,1.1.06c3.31,2.75,8.89,4.96,12.46,2.33-1.25-.65-2.33-.64-3.21-1.87,1.98-.96,3.94-.59,5.92.43,2.66-.98,5.18-.1,7.8-.31l5.38-.44c-3.54-4.37-5.83-8.78-8.7-13.25-.7-1.09-4.63-4.65-3.22-5.39,1.29-.67,3.01,2.11,5.52,2.23l-7.39-11.61-7.32-11.38c-.89-1.39-1.81-2.02-3.3-2.63l-2.11-3.2c-.25-.38-.19-1.08.06-1.13,1.6-.32,4.15,2.77,8.13,2.55l-6.15-9.04-7.12-10.05c-.84-1.18-2.37-1.97-2-3.91,1.14.28,1.91,1.36,3.63,1.13l-6.89-7.59c-3.25-3.58-6.65-6.85-10.55-9.79l-4.7-3.55c-5.95-.89-11.7-.8-17.83-.96-4.73,2.2-8.97,5.17-12.79,8.93-1.12,1.33-2.12,3.16-3.65,3.88-.82.39-1.75.45-2.64,1.11-2.72,2-5.13,4.24-7.53,6.64,2.09,1.33,3.47-1.39,5.11-.63-3.73,6.16-8.06,11.46-12.49,16.95-1.88,2.33-3.56,4.52-6.03,6.39,1.6.92,2.77-.1,3.88-.11,2.21,0,3.78-.16,5.75-1.87.37,1.56-.47,2.04-1.4,2.9-4.29,3.96-8.43,8.15-11.33,13.26s-6.32,9.23-10.32,13.51c2.32.2,3.41-.86,5.2-1.06l-4.92,6.04c-3.15,3.87-5.8,7.85-9.44,11.41,5.78,1.88,11.54-.56,16.25.64,1.86.47,3.19,1.51,5.17.35.22-.13.95.12.89.43-.11.58-1.54.81-1.01,2.02.65,1.48,2.77-1.71,4.67-.96-.47.98-1.48,1.57-1.69,2.77,3.18.39,5.93-.7,8.93-.91,1.83-.13,3.8,1.33,5.52,1.74l4.03-7.22c.26-.47.72-.64,1.19-.48.32.11.21.72.09,1.07l-2.44,6.87.89,3.47c4.51-2.64,8.12-9.16,10.81-14.09.37-.68.62-1.44,1.62-1.35-.25,1.54-.61,3.06-1.27,4.53l-3.47,7.76c1.89.89,3.7.33,5.47.72l5.65,1.24,6.88-.13c2.82-.05,5.26.37,8.05-.2Z"/>
        <path class="cls-1" d="M94.92,9.66c-1.29,3.63-.42,10.79-1.55,10.83-.27.01-.81,0-.92-.58l-1.25-6.82-1.48-8.59c-.37-2.17.27-4.32,1.45-4.48,2.09-.28,2.52,5.91,3.75,9.65Z"/>
        <path class="cls-1" d="M97.37,20.07c-.9-2.27-1.65-4.52-1.31-6.71l.81-5.21c.25-1.63,1.05-2.86,1.31-4.57.16-1.03.77-2.68,1.85-2.98s1.81,1.18,1.66,2.14l-1.08,6.68-.98,2.92c-.88,2.62-1.36,4.89-2.24,7.73Z"/>
        <path class="cls-1" d="M98.13,135.67c-6.12.08-11.78.39-17.57,1.24-.41.06-1.03-.34-1.17-.57-.19-.3.05-1.1.71-1.22,5.53-.97,11.1-2,16.72-1.52l9.3.8c.26.02.4.38.4.51,0,.19-.31.65-.66.66l-7.73.1Z"/>
        <path class="cls-1" d="M15.15,125.08l-5.44.28-8.43.9c-.47.05-.93-.29-1.09-.54-1.47-2.25,5.95-2.12,9.15-2.52,2.67-.33,5.14-.49,7.83-.05l6.81.11c.41,0,.79.47.77.71-.11,1.54-6.27.93-9.6,1.1Z"/>
        <path class="cls-1" d="M29.43,131.13l-14.59,2.36c-.6.1-1.32-.25-1.48-.59-.98-2.2,8.52-2.84,13.46-3.53,1.82-.26,3.65-.6,5.29.69-.51.91-1.55.89-2.68,1.07Z"/>
        <path class="cls-1" d="M181.47,124.32l-7.34-.69-7.35-.39c-.54-.03-.75-.34-.71-.82.09-.99,4.89-1.36,8.46-.9l7.15.92c.48.06.81.44.8.78-.01.31-.28,1.17-1,1.1Z"/>
        <path class="cls-1" d="M150.71,133.77c.54.49-.92,1.33-1.64,1.2l-12.97-2.47c-.34-.1-.11-1.01.13-1.14,1.68-.85,11.95.11,14.48,2.41Z"/>
        <path class="cls-1" d="M165.04,130.95l-11.72-1.58c-.26-.14-.27-1.05-.04-1.23,1.58-1.23,9.59.06,13.32,1.2.47.14.33,1.1.06,1.28-.37.26-.84.43-1.62.33Z"/>
        <path class="cls-1" d="M44.9,134.63c-2.9.3-7.08,1.22-7.24-.11-.05-.42.32-.91.89-1.04l5.61-1.22c1.91-.41,4.05.06,5.92.94-1.65,1.49-3.44,1.24-5.18,1.42Z"/>
        <path class="cls-1" d="M26.11,99.9c-1.99,2.4-7.65,3.81-8.83,1.98.68-1.75,5.75-2.41,8.83-1.98Z"/>
        <path class="cls-1" d="M26.19,95.39l-4.57-.02c-.31,0-.48-.78-.42-1.03.38-1.46,4.72-1.75,7.15-.21-.32.87-1.15,1.27-2.17,1.26Z"/>
        <path class="cls-1" d="M168.01,102.91c.1,1.9-5.61,1.14-6.75-1.8,2.81-.4,6.68.6,6.75,1.8Z"/>
        <path class="cls-1" d="M135.56,99.97c-.47.19-.81.25-1,.21-.31-.06-.36-.46-.52-.69l-2.95-4.15c-1.08-1.52-2.62-2.65-4.46-2.69.73,2.17,1.49,3.82,1.01,5.95-1.43-1.81-2.07-3.59-2.83-5.47l-3.26-8.05c-.33-.81-.43-1.78-.48-2.69,2.89,2.02,3.83,6.96,7.98,8.96-.08-3.11-2.77-6.13-1.14-6.1,2.29,2.36,3.51,5.39,5.05,8.22,1.18,2.16,2.51,4.03,2.61,6.5Z"/>
        <path class="cls-1" d="M78.87,71.31c.51.35-2.94,6.16-7.02,7.89-1.44.61-2.52,1.12-3.86,2.15l-2.61,2.01c-.51.4-1.2.41-1.56.16s-.55-1.42-.15-1.77c1.34-1.17.78-2.78,1.31-4.01,1.94-4.52,4.49-8.72,7.63-12.64.25,2.05-1.04,3.45-1.81,5.04-1.33,2.78-2.95,5.17-3.19,8.24,1.09-.85,2.11-.65,2.97-.97,4.55-1.66,7.13-6.89,8.28-6.11Z"/>
        <path class="cls-1" d="M48.65,110.1l1.88-5.62c-1.19.59-1.66,1.51-2.2,2.49-.31.57-1.62.79-1.62.28-.02-1.77,1.18-3.18,2.23-4.39l5.4-6.26c.09-.11.68-.11.75,0,.11.15.17.54.02.82-1.15,2.21-1.7,4.49-2.58,6.82l-2.43,6.47c-.22.58-.64.84-1.03.74-.53-.13-.64-.72-.43-1.34Z"/>
        <path class="cls-1" d="M91.01,52.34c.36,2.49-.96,6.1-1.95,6.04-.92-.06.38-2.05-.8-2.83-.28,1-.68,1.29-1.05,1.37s-.96-.7-.79-1.15c1.39-3.67,2.32-7.48,4.65-11.04,1.12,1.92-.29,3.56-.7,5.21l-.35,1.44c-.08.31.65.72.98.97Z"/>
        <path class="cls-1" d="M47.22,99.78c-1.47,2.05-2.66,3.94-4.53,5.34-.24.18-.99.1-1.05-.13s-.03-.85.18-1.11l10.6-13.65c-.27,3.84-3.06,6.57-5.2,9.56Z"/>
        <path class="cls-1" d="M116.31,108.66c.58,1.5.89,3.13.4,4.4-.63.18-1.2-.63-1.38-1.17l-4.22-12.81c-.18-.54.07-.92.33-.98.39-.09.89.22,1.05.66l3.81,9.9Z"/>
        <path class="cls-1" d="M146.36,109.47l-.54-2.21-4.97-8c-.21-.34-.3-.94-.2-1.22.1-.3.69-.73.94-.52l2.49,3.56c1.62,2.31,3.38,4.22,3.52,7.23.01.27.18.55-.06.81s-.47.39-1.18.34Z"/>
        <path class="cls-1" d="M79.31,51.09l-3.49,4.82c-.18.25-.79.33-.93.2s-.09-.5-.04-.85l4.66-9.1c-3.06,1.05-4.83,6.01-6.19,5.24-1.21-.69,5.57-8.44,8.26-11.09,1.91.39-.77,3.05-2.23,5.83.96-.25,1.56-.86,2.35-.59.37,1.09-.68,2-.9,2.84-.32,1.23-.75,1.66-1.5,2.7Z"/>
        <path class="cls-1" d="M111.93,84.89c.14.52-.09,1.07-.2,1.24-.14.22-1.01-.04-1.13-.4l-1.99-6.04c-.5-1.51-.85-2.88-.67-4.52.69-.03,1.42.33,1.62,1.07l2.36,8.65Z"/>
        <path class="cls-1" d="M114.63,60.4c.36.68.2,1.07.17,1.51-.03.57-.93.93-1.13.6l-2.03-3.41-2.16-5.25c-.12-.29-.02-.79.03-1.09s.36-.25.63-.23c.45.05.54.37.78.83l3.7,7.03Z"/>
        <path class="cls-1" d="M83.38,91.9c-.66,1.88-1.44,3.41-3.09,4.69-.05-1.6.5-2.88,1.08-4.32l2.77-6.91c.13-.32.53-.73.75-.8.28-.08.87.54.73.94l-2.24,6.41Z"/>
        <path class="cls-1" d="M122.67,110.16c.25.54.13,1.08,0,1.4-.1.26-.61.51-.91.3-.22-.16-.64-.54-.81-.92l-3.48-7.72-.15-.85c-.03-.16.78-.38.94-.22.63.65,1.41,1.63,1.84,2.55l2.58,5.47Z"/>
        <path class="cls-1" d="M115.6,52.85l-2.77-3.66-2.78-4.3c-.24-.37.07-.5.29-.71.25-.23.69-.39.95-.1,2.39,2.71,6.36,8.92,5.42,9.22-.37.12-.73.04-1.11-.46Z"/>
        <path class="cls-1" d="M114.7,42.59c.34,1.01,1.75,2.26.75,3.45-2.11-1.76-3.07-4.33-4.81-6.35-.88-1.02-2.02-1.83-2.04-3.16,1.84-.34,2.11,1.93,2.57,2.98,1.53.51,2.77.79,3.53,3.07Z"/>
        <path class="cls-1" d="M126.94,69.87c.2.39.09.91-.06,1.02s-.69.03-.86-.2l-3.14-4.24c-.36-.49-.62-1.19-.38-1.52.42-.58,1.52-.62,1.86.04l2.57,4.9Z"/>
        <path class="cls-1" d="M66.87,109.34c-1.51-3.48-.04-5.03,1.98-8.31.86,1.18.2,2.35-.16,3.33l-1.82,4.98Z"/>
      </g>
      <g>
        <path d="M314.64,121.9l-38-.13c-1.07,0-1-1.99-.78-2.72.64-2.1,6.95-.33,10.8-3.8,1.87-1.68,2.55-4.54,2.52-7.35l-.17-18.51c-.05-5.93,1.03-12.01-.7-17.86-.48-1.63-4.55-1.68-6.04-1.69l-47.06-.06c-3.39,0-5.41,2.3-5.38,5.66l.27,33.62c.02,2.47.95,5.21,2.38,6.52,3.92,3.57,12.74.38,10.03,5.72-.41.8-2.08.74-3.24.74l-36.65-.27c-.97,0-.95-2-.75-2.7.59-2.08,6.18-.58,9.98-3.45,1.94-1.46,2.69-4.47,2.73-7.27l.59-44.56c.19-14.5.61-28.69-.98-43.12-.6-5.47-9.51-4.05-12.15-6.31-.62-.53-.27-3.24.73-3.24l39.07-.1c1.02,0,1.12,2.08.9,2.76-.75,2.34-10.67,1.1-11.56,6.78-2.01,12.9-1.48,25.63-1.07,38.54.07,2.19,2.09,3.92,4.05,3.9l29.12-.36c7.96-.1,16.05,1.52,24-.22,2.63-.58,1.89-5.54,1.88-7.41l-.18-30.65c-.06-10.15-10.95-7.75-13.08-9.82-.63-.61-.23-3.45.81-3.45l39.08-.04c.97,0,1.26,2.07.97,2.69-1.36,2.91-12.79-.13-12.81,11.86l-.08,82.68c-.01,11.5,12.15,8.56,12.81,10.93.35,1.24.1,2.71-2.03,2.71Z"/>
        <path d="M467.13,55.46c-5.12.92-7.38,3.72-9.13,8.05l-30.82,75.91c-5.33,13.12-14.7,27.15-27.57,22.52-3.51-1.26-4.44-4.01-4.13-7.07.93-8.99,16.93,2.02,22.15-10.28l9.37-22.08-25.6-60.99c-3.35-7.99-11.81-4.03-10.61-8.31.29-1.02,1.12-1.22,2.55-1.22l30.11.11c.51.43.4,2.1.28,2.59-.42,1.77-4.57.4-6.25,2.65-.95,1.27-1.15,3.13-.93,5.16l17.94,43.6,11.78-29.9,3.58-11.78c.42-2.49.11-4.78-1.58-6.45-3.09-3.07-7.72-1.6-8.39-3.3-.23-.6-.12-2.55.86-2.55l26.25-.03c1.36,0,1.75,3.09.11,3.39Z"/>
        <path d="M358.57,119.22c-7.5,5.02-17.92,5.27-25.09-.11-4.86-3.65-5.49-9.7-4.65-15.79,1.74-12.59,24.24-19.05,38.46-21.71.62-6.68.62-13.34-1.9-19.27-2.18-5.13-8.27-6.98-13.3-5.98-11.77,2.33-8.08,14.37-14.07,16.2-1.68.51-5.02.54-5.9-1.8-1.66-4.43.21-9.61,3.98-12.55,9.34-7.28,21.82-9.56,32.95-5.56,6.35,2.28,10.16,7.99,10.21,14.65l.29,41.07c.02,2.66,2.03,4.77,3.76,5.65,4.12,2.09,8.31-3.2,10.15-.3,1.58,2.48-6.32,7.65-12.69,8.9s-11.83-2.46-12.65-9.78l-9.55,6.39ZM367.49,103.37l-.11-16.54c-6.56.07-12,2.22-17.75,4.95-7.25,3.45-11.55,13.48-5.65,19.8s23.57,1.2,23.51-8.21Z"/>
        <path d="M613.06,118.79c-6.78,4.55-15.97,5.63-22.89,1.61-5.84-3.4-7.15-9.81-6.59-16.26,1.18-13.63,22.68-18.69,37.04-22.61.66-6.65,1.17-13.69-1.67-19.65-2.46-5.17-8.6-6.56-13.59-5.33-10.86,2.68-7.71,13.78-12.51,15.94-1.79.81-5.41,1.13-6.39-1.15-2.04-4.76.26-10.31,4.31-13.45,8.36-6.47,19.1-8.62,29.35-6.19,7.22,1.71,12.5,7.3,12.56,14.91l.34,41.48c.02,2.22,1.25,4.57,2.59,5.56,3.48,2.57,8.1-1.38,9.49-.52,4.23,2.59-7.28,11.03-16.26,9.27-4.2-.82-6.25-5.06-7.41-9.22l-8.37,5.62ZM620.48,105.29l.47-18.55c-6.92.6-11.52,2.62-17.24,5.22-7.06,3.21-11.44,13.94-4.93,20.04s19.74,1.58,21.71-6.71Z"/>
        <path d="M519.64,108.19c-5.44,16.46-30.74,18.68-44.56,9.39-4.86-5.57-4.3-19.56.71-19.14,1.1.09,1.95,1.34,2.19,3.01,1.5,10.43,10.72,17.65,21.1,16.17,6.1-.87,10.08-5.39,10.62-10.74.57-5.78-3.04-10.15-8.52-12.65l-18.27-8.31c-6.3-2.87-8.53-8.81-8.39-15.54.15-7.08,3.06-12.77,9.59-16.33,9.78-5.34,22.29-4.5,32.12,1.39,1.44,7.75,1.36,15.85-2.49,15.58-1.03-.07-1.89-1.12-2.21-2.61-1.92-8.96-10.19-14.65-19.04-12.02-4.29,1.28-6.69,4.91-7.09,8.84-.44,4.27,1.67,8.25,5.98,10.19l13.85,6.22c4.13,1.86,8.6,3.67,11.61,7.3,4.31,5.19,5.1,12.4,2.83,19.26Z"/>
        <g>
          <path d="M790.37,121.72l-19.51-.33c-2.37-.45-4.59-3.62-6.25-5.34l-27.51-28.5-.75,24.53c-.11,3.45,2.3,5.95,5.91,5.79,1.01-.05,2.66.18,3.21.65.65.55.3,3.24-.58,3.25l-31.29.12c-.93,0-.94-2.08-.66-2.69,1.14-2.5,11.57.33,11.54-9.91l-.23-81.32c0-2.3-.45-4.79-1.58-6.42-2.69-3.91-9.62-1.13-9.86-3.86-.1-1.18.27-2.1,1.92-2.71l18.89-7.1c1.35-.51,2.04-1.28,3-.38s.91,1.49.83,3.03l-1.04,19.9.34,54.21,26.27-23.52c1.15-1.03,1.29-3.14.48-4.14-1.5-1.88-5.07-1.23-5.88-2.3-.58-.77-.1-2.67.92-2.67l28.1.03c1.3,0,.95,1.16,1,1.64.08.77-.82,1.84-2.13,1.87-4,.48-7.4,2.11-10.43,4.69l-24.92,21.25,28.54,30.37c3.31,3.52,7.25,5.67,12.18,6.16,1.35.13,1.19,3.73-.54,3.7Z"/>
          <path d="M668.65,105.46c7.97,10.55,23.03,10.06,33.01,3.57,1.86-1.21,3.75-2.24,5.57-.28-6.51,10.41-18.56,15.42-31.07,13.94-9-1.07-17.01-6.38-21.66-14.62-8.07-14.29-6.48-32.75,3.79-45.43,7.05-8.7,17.1-12.4,27.97-11.83,11.47.6,21.65,5.3,19.65,15.49-.42,2.13-1.55,3.63-2.94,4.38-1.57.84-4.5,1.23-5.33-.6l-3.44-7.6c-3.62-4.59-9.3-6.36-15.32-5.59-16.9,2.15-22.33,32.57-10.24,48.58Z"/>
        </g>
        <path d="M562.72,114.62c7.09.02,13.93-5.67,13.03-.72-.52,2.83-9.93,8.35-17.5,8.96-9.79.79-17.9-5.11-18.01-15.34l-.48-47.15c-2.69-2.47-7.08-1.29-9.55-1.58-1.7-2.48,1.26-3.42,2.96-4.27,13.47-6.74,15.46-22.89,17.76-23.7,5.26-1.86-.36,17.35,2.41,20.84.89,1.12,2.96.65,4.69.67l16.56.15c1.6.01,1.62,5.69-.39,5.76l-21.62.85.08,45.21c.01,5.9,3.83,10.31,10.05,10.33Z"/>
      </g>
    </g>
  </g>
</svg>