<?xml version="1.0" encoding="UTF-8"?>
<svg id="Layer_2" data-name="Layer 2" xmlns="http://www.w3.org/2000/svg" viewBox="0 0 97.95 77.02">
  <g id="Layer_1" data-name="Layer 1">
    <g>
      <path d="M64.24,70.07c.06,3.4,1.77,4.31-.24,6.47-.44.47-2.12.46-2.21-.62-.76-8.53-5.86-15.67-13.99-18.92-10.6-4.24-22.24-1.41-30.54,6.25-3.62,3.34-6.45,7-7.86,11.7-.35,1.17-1.46,1.62-2.28,1.27-1.24-.53-1.61-1.51-1.02-2.81,3.82-8.36,10.24-15.4,18.72-18.96,14.5-6.17,31.26-2.14,38.09,12.65,8.14-6.57,19.51-7.75,28.18-2.13,6.17,3.99,8.23,10.7,5.99,11.89-.58.31-2.06.22-2.16-.79-.32-3.33-1.96-5.85-4.75-7.76-7.96-5.48-18.71-4.82-25.92,1.76Z"/>
      <path d="M54.55,33.05c0,8.04-6.52,14.55-14.55,14.55s-14.55-6.52-14.55-14.55,6.52-14.55,14.55-14.55,14.55,6.52,14.55,14.55ZM51.3,33.07c0-6.23-5.05-11.28-11.28-11.28s-11.28,5.05-11.28,11.28,5.05,11.28,11.28,11.28,11.28-5.05,11.28-11.28Z"/>
      <path d="M90.93,46.88c0,6.21-5.04,11.25-11.25,11.25s-11.25-5.04-11.25-11.25,5.04-11.25,11.25-11.25,11.25,5.04,11.25,11.25ZM87.83,47c.37-4.15-2.64-7.3-6.48-7.99-3.07-.55-6.22.9-8.02,3.26-1.65,2.17-2.53,5.33-1.21,8.05,1.71,3.55,5.6,4.94,9.22,4.06,3.19-.78,6.13-3.32,6.49-7.39Z"/>
      <path d="M14.86,13.45c.73.64.52,1.64.08,2.21-.39.51-1.46.78-2.21.12l-6.79-5.98c-.74-.65-.7-1.62-.36-2.13.52-.77,1.63-.94,2.35-.31l6.93,6.08Z"/>
      <path d="M10.44,24.28c.08,2.2-5.12,1.28-9.43.43-.83-.16-1.15-1.18-.94-1.69.24-.57.87-1.24,1.72-1.12l7.65,1.04c.62.08.99.94,1,1.34Z"/>
      <path d="M24.08,8.13c.22.81-.87,1.85-1.35,1.86s-1.38-.39-1.58-1.15l-1.81-7.14c-.23-.9.46-1.62,1.14-1.7.58-.07,1.43.3,1.66,1.16l1.93,6.97Z"/>
    </g>
  </g>
</svg>