<?xml version="1.0" encoding="UTF-8"?>
<svg id="Layer_2" data-name="Layer 2" xmlns="http://www.w3.org/2000/svg" viewBox="0 0 86.17 86.17">
  <g id="Layer_1" data-name="Layer 1">
    <g>
      <path d="M86.17,43.09c0,23.8-19.29,43.09-43.09,43.09S0,66.88,0,43.09,19.29,0,43.09,0s43.09,19.29,43.09,43.09ZM83.04,43.08c0-22.08-17.9-39.98-39.98-39.98S3.07,20.99,3.07,43.08s17.9,39.98,39.98,39.98,39.98-17.9,39.98-39.98Z"/>
      <path d="M44.46,63.52c.02,1.2-.76,1.73-1.62,1.68-.97-.05-1.45-.78-1.41-1.82l.15-4.58-.12-13.76c-2.5-.59-4.74-.17-7.11-.18-3.58-.01-7.03-.3-10.57.1-1.09.12-1.85-.49-1.95-1.36-.09-.74.44-1.91,1.53-1.83,3.2.24,6.36.21,9.68.18l8.44-.09c.22-6.41.17-12.58-.09-18.88-.04-1.02,1.02-1.65,1.71-1.58.88.09,1.48.85,1.43,1.86l-.2,6.93.15,11.7,12.36-.05,6.2-.08c.96.19,1.39,1.04,1.28,1.81-.13.97-1.05,1.52-2.11,1.38-3.12-.42-6.13-.3-9.29-.2l-8.5.26-.07,9.81.12,8.72Z"/>
    </g>
  </g>
</svg>