<?xml version="1.0" encoding="UTF-8"?>
<svg id="Layer_2" data-name="Layer 2" xmlns="http://www.w3.org/2000/svg" viewBox="0 0 104.91 73.26">
  <g id="Layer_1" data-name="Layer 1">
    <g>
      <path d="M103.63,71.12l-6.13-2.19-9.06-3.07-3.51-1.02c1.01-.66,1.36-1.6,1.65-2.69.39-1.47,1.29-2.66,1.94-4l3.58-7.28,7.25-15.12c.38-.79.59-1.48,1.06-2.22.32-.51.38-1.22.8-1.76.76-1,1.46-2.76,1.19-4-.73-.87-1.74-1.16-2.78-1.48l-3.15-.94c.56-.71.82-1.33,1.16-2.05l1.85-3.92,2.61-5.17c.14-.27.44-.54.32-.83-.53-1.26-3.58-1.62-5.57-2.2l-4.35-1.27-3.97-1.09-6.27-1.86-6.01-1.66c-.53-.15-.82-.28-1.4-.47l-2.27-.74c-2.39-.61-4.68-1.11-7.01-1.89-.5-.16-.89-.35-1.39-.47l-2.74-.68c-.33-.08-.55-.45-.97-.45l-3.21,6.09-2.22,4.37c-.91-.34-.75-2.1-1.58-3.03-1.29-1.46-2.06-1.48-3.47-1.84l-7.24-1.83c-.63-.16-1.16-.53-1.84-.43-.41.06-.86-.11-1.07-.56l.26-.23c-.38-.03-.72-.18-.99-.42-.13.01-.26.02-.38.03-.11.09-.21.17-.32.25l-4.45-.9-4.83-1.29-1.76-.48c-.84-.23-1.99-.8-2.68.21-.25.37-.41.99-1.03,1.08.34,1.14-.14,2.11-.41,3.17l-1.48,5.75c-.17.67-.56,1.32-.68,1.96-.14.73-.16,1.46-.35,2.22l-1.85,7.25-3.26,13.52-.63,2.05c-.45,1.46-.38,2.98-1.13,4.39-.22.82-.61,1.62-.45,2.47-.9,1.63-.08,3.15,1.38,3.94.44.27.68.73,1.3.87l3.93.94,3.2.98,6.41,1.7,3.06.91,5.12,1.37,3.25.93,7.01,1.84c.97.25,1.77.81,2.8.98,2.48.42,4.74,1.38,7.16,1.99l4.54,1.16,6.52,1.76,3.66,1.05,2.7.75c1.02.47,2.02.63,3.12.62,1.26,0,2.41.53,3.6.89l6.14,1.88,4.86,1.38,4.45,1.24,3.56.96,1.62.57c.69.25,1.89.08,2.1-.76.18-.72-.72-1.08-1.26-1.27ZM56.21,11.17l1.49-3.12c.25-.51.33-.76.74-1.2l1.12-2.45c.36-.78.98-1.4,1.25-2.29.95-.1,1.75.4,2.6.63l4.54,1.25,17.87,5.08,5.07,1.42,8.92,2.52c.34.1,1.13.22,1.19.72l-11.5,23.44c-.23-1.1.27-1.91.58-2.79l1.54-6.01.64-3.92c.13-.77-.46-1.5-1.04-1.9-.95-.64-1.65-.49-2.6-.57-1.48-.11-2.95-.66-4.41-1.04l-7.51-1.93-7.15-1.87-6.14-1.63-5.14-1.35-1.47-.49c-.61-.2-.89-.57-1.07-.97-.32-.72.24-1,.5-1.56ZM84.46,50.89l-1.17,4.39-1.34,5.34c-.13.5-.34.74-.47,1.2l-.73,2.56c-.68,1.06-2.15.98-3.07.47-1.79-.2-3.37-.65-5.01-1.13l-3.07-.9-3.05-.9-6.6-1.73-3.93-1.12-4.13-1.13-4.69-1.28-6.89-2.03c-1-.3-1.94-.39-2.98-.69l-3.39-.97c-2.96-.85-5.86-1.51-8.81-2.54-1.42-.49-2.87-1.01-4.32-1.09-.8-.04-1.3-.19-2.06-.51-1.45-.61-3.39-.62-4.43-2.56-.08-.43.02-1.06.12-1.47l1.3-5.5,3.36-13.56c.59-2.36,1.16-4.57,1.74-6.93l.87-3.5c.35-1.43.59-2.71.92-4.11l1.71-7.1c.17-.71.5-1.31.73-1.96.09-.27,0-.73.15-.9.62-.74,1.75.4,2.75.43.9.03,1.74.18,2.54.62.4.22.89.03,1.29.16l5.43,1.75c2.2.45,4.39.71,6.51,1.49l3.68,1.01,2.78.72c.6.15,1.45-.08,2.31,1.54l2.3,4.37c.45.85,1.67,1.71,2.56,1.85.55.09.79.24,1.26.36l8.82,2.2,9.22,2.35,9.37,2.39,4.87,1.2.23,1.81-.93,4.16c-.37,1.67-.69,3.23-1.34,4.83l-.95,3.58-1.14,4.31-.71,1.85-.32.29c-.07.06.11.31.14.5.13.82-.35,1.48-.52,2.21l-.47,2.01c-.14.61-.25,1.08-.4,1.67Z"/>
      <path d="M4.02,24.08l.06-1.73c.03-.9,0-1.56-.48-2.3-.3-.44-.5-.85-1.13-.98-.84-.17-1.7-.43-2.39-.95-.15-.12-.03-.74.16-.79l3.48-.07c.39,0,1.01-.39,1.17-.7l1.23-2.25c.15-.27.61-.63.84-.42.13.99.09,2.01,0,2.97-.21,2.36,2.71,1.77,3.27,2.73.29.51-.53,1.02-.97.86-.98-.38-1.89-.13-2.9.23-1.36,1.62-.54,3.53-2.33,3.39Z"/>
      <path d="M99.66,55.12c-1.17.75-2.15.39-3.01-.41-.28-.26.02-.54.01-.79-.05-1.02.21-1.44.9-1.97,1.48-1.13,3.52-.09,3.53.85.02.88-.71,1.85-1.44,2.31Z"/>
    </g>
  </g>
</svg>