<?xml version="1.0" encoding="UTF-8"?>
<svg id="Layer_2" data-name="Layer 2" xmlns="http://www.w3.org/2000/svg" viewBox="0 0 427.56 310.61">
  <g id="Layer_1" data-name="Layer 1">
    <path d="M254.48,107.82c5.21,6.97,12.29,14.55,18.62,20.6,4,3.83,7.28,5.24,13.56,14.43,4.1,6.01,10.21,10.78,12.9,17.89,1.69,4.46-4.7,10.33-9.09,8.83-5.31-1.82-8.21-7.15-10.76-11.78-4.69-2.01-8.55-4.47-11.74-8.32-2.75-3.98-6.77-6.34-10.09-9.7-6.5-6.56-15.49-8.29-26.88-19.15-6.67-6.35-15.13-9.58-22.92-14.34l-30.09-18.36c-.65-2.51-2.91-7.22-5.38-6.42-2.05,2.27-3.97,1.62-6.09,2.81l-6.82,3.86c-2.62,1.48-6.72,5.22-10.23,4.54-3.77-.73-6.81-.78-10.18,1.57-5.42,3.79-11.42,4.08-17.63,5.56-4.08.97-8.26,3.24-12.02,4.93-2.56,1.16-5.83,1.66-8.05,2.84-4.97,2.65-9.64,3.91-14.64,6.48l-12.52,6.43c-2.3,1.18-5.85,2.36-7.89,3.87-9,6.63-15.6,8.17-23.62,11.46l-16.94,6.95,21.79,7.33c3.29,1.11,5.99.85,9.2,3.14l7.25,1.22c3.29,4.51,7.52,5.31,12.68,5.84l8.03,3.59c8.78,3.93,17.9,6,26.53,10.29l2.49,3.48c7.87,5.26,20.4,7.96,27.78,11.52l13.3,6.41c9.53,4.6,18.4,9.17,28.39,12.65,6.13,2.13,11.48,5.68,18.05,6.78,4.15.7,7.47,4.64,11.36,5.56,11.16,2.63,21.02,6.83,31.49,11.47l26.86,9.08,24.88,8.96c10.9,3.92,21.53,6.38,32.2,10.7l21.42,8.68,44.08,17.36c-4.93-9.96-14.09-14.39-20.36-22.26l-3.55-5.46c-6.33-9.72-15.85-15.93-23.96-23.8l-25.37-24.63c-1.77-8.05-8.94-11.41-2.02-17.38,1.72-1.48,5.57-3.76,7.92-1.64,4.49,4.04,9.74,7.12,13.79,10.84l12.26,11.23c-1.12,2.88-.17,5.89,2.23,7.51,4.4,2.97,4.9,7.57,7.89,11.3l10.76,13.43,7.9,8.82c7.7,8.6,15.66,14.25,23.55,22.17l-5.6-25.25c-.62-2.79-2.82-5.24-2.33-8.57.6-4.06-2.01-7.29-3.07-10.74s-1.66-5.91-2.81-9.26l-4.84-14.08c-1.43-4.15-2.55-7.94-4.11-11.87-3.53-8.95-4.9-17.58-7.21-26.86-4.82-19.36-11.39-37.81-18.43-56.37-2.22-5.84-4.08-11.06-5.98-17.03l-15.2-47.62-5.82-17.85c-.63-6.6-1.18-12.55-3.23-19.02-1.27-4.01-1.08-9.39,2.74-11.76,3.25-2.02,7.81.31,9.23,3.68l10.3,24.63,3.3,7.84c.76,1.81,2.62,2.97,1.84,5.72-.9,3.15,1.03,5.12,2.75,7.43,1.1,1.48.88,4.33,1.63,6.29,2.39,6.22,5.68,12.41,5.93,19.11.08,2.24-1.79,4.35-.73,7.6l4.91,15.17c1.87,5.76,2.47,11.72,3.02,17.74.46,5.04,2.45,9.45,3.79,14.08l4.9,16.94c1.17,4.03.69,7.53,3.03,11.34,3.18,5.19,3.04,12.1,5.11,17.78l6.39,17.52,6.18,18.91c3.75,7.76,6.48,15.12,8.72,23.35l4.03,14.82,13.29,46.41c1.02,3.58,2.17,8.62-1.59,11.3-4.4,3.15-11.23,2.48-16.33.7l-16.3-5.68c-6.94-2.42-13.05-3.31-20.37-3.15-6.75.14-13.2-3.11-19.72-4.75l-48.51-12.2c-6.79-1.71-12.81-3.44-19.5-5.49-19.2-5.87-38.28-11.13-58.14-14.72-9.51-1.72-18.25-2.54-27.47-5.54-4.12-1.34-8.1-2.32-12.44-3.48l-14.24-3.79c-8.97-2.39-15.68-4.12-25.26-5.09-4.28-.43-8.45-2.21-13.07-2.9l-12.78-1.88c-2.31-.34-4.38-1.28-5.45-2.69-4.02-5.27,3.19-27.04,6.9-38.48l-63.99-24.79-22.49-8.67c-7.64-2.94-13.78-8.26-21.77-11.07-4.86-1.71-9.48-4.03-12.78-7.9-1.77-2.07-1.83-5.94.75-6.71,4.26-1.27,4.15-7.47,15.86-11.15l21.47-6.74c10.74-3.37,16.24-6.15,25.8-11.17l7.15-3.75c5.33-2.8,10.37-4.23,15.97-6.03,12.79-4.12,23.63-11.38,35.64-17.27l46.53-22.81c4.77-2.34,9.9-.79,14.86-4.71l16.42-5.24c2.21-.7,4.4-.91,6.29-1.92l23.93-12.86,7.02-1.9c9.18-2.49,16.32-8.9,24.6-13.57l33.07-18.65c9.01.06,12.47-4.5,16.8,2.45,1.25,2.01,2.33,6.45.08,8.2l-13.92,10.85c-1.55.13-3.35.9-5.09,1.98l-9.33,5.79c-2.97-1.98-6.02-1.48-8.51.46-3.57,2.78-7.13,2.97-11.57,3.46l-12.65,4.99c-5.54,2.19-14.74,6.58-19.59,9.58-5.32,3.29-11.13,5.23-15.11,10.36,2.69,1.66,4.91,2.87,6.77,4.69l11.26,11.05c-1.07,3.05-.24,6.23,2.47,8.11,3.92,2.71,4.02,7.07,6.6,10.53l9.68,12.93ZM243.78,256.14l8.61.74c4.56,2.4,9.31,2.12,14.01,3.3,8.84,2.22,17.24,4.49,27.41,3.05-6.19-4.16-13.16-4.76-19.83-7.29l-16.45-6.25c-9.97-2.63-18.08-7.52-27.63-11.43-31.07-12.73-62.4-23.21-94.56-33.74l-5.01,22.56c5.87,1.6,11.14,2.89,17.06,3.22,3.28.19,6.26,2.02,9.34,2.51,8.59,1.36,15.9,4.7,24.23,6.86l19.08,4.93,19.2,5.47c8.53,1.31,16.09,2.8,24.53,6.07Z"/>
  </g>
</svg>