<?xml version="1.0" encoding="UTF-8"?>
<svg id="Layer_2" data-name="Layer 2" xmlns="http://www.w3.org/2000/svg" viewBox="0 0 162.45 202.85">
  <g id="Layer_1" data-name="Layer 1">
    <path d="M38.61,134.07c-2.08,1.94-4.09,3.41-6.12,5.14l-9.23,7.86c-.68.58-3.77,2.04-5.2,4.08-6.01.72-11.64,2.53-18.07,4.18l7.34-17.42,6.88-5.9c3.46-2.96,7.15-5.2,10.33-8.44l7.86-6.39,4.51-4.1c1.63-1.48,3.4-2.59,5.07-4.02,2.32-1.99,4.2-4.28,7.22-6.04-3.21-3.57-4.32-8.26-3.85-13.18,1.49-15.61,5.47-32.23,16.48-43.4,3.95-4.01,9.32-6.06,14.79-6.04,1.42-1.1,1.39-2.76,1.89-4.14,1.04-2.84,3.75-4.28,6.13-5.66,2.99-1.73,9.73-1.37,12.99.74l4.92,3.19c.75-2.43,2.48-3.45,4.7-3.79,7.01-1.06,7.79.41,13.44,4.96-.23-9.92-4.09-19.34-5.1-27.92-.4-3.37,1.03-6.79,4.4-7.71,1.14-.31,2.73.25,3.63.9,4.95,3.58,7.97,11.32,10.1,17.54,1.05,3.08,1.72,6.13,3.71,9.25,2.73-1.76,4.55-4.48,6.81-6.84l6.24-6.51,8.98,10.52c.95,1.12,3.17,1.87,2.91,3.75-.05.35-.82.92-.74,1.24.08.34.39.79.83,1.52-2,.17-2.92,1.73-4.46,2.73l-4.95,3.18-11.54,10.03,1.3,12.02c.7,6.46,1.66,12.41,1.62,19.11-.16,26.84-.81,53.23-2.42,80.05l-2.05,34.17c-8.34,6.97-17.85,10.38-28.41,10.11s-22.65-2.65-29.98-10.8c2-10.02,3.18-19.72,4.16-29.71l.93-5.82c-4.52,3.42-9.89,4.29-15.65,2.48-4.42-1.39-8.18-5.25-10.35-10.1-3.9-8.7-7.39-17.25-8.15-27.29l-4.68,3.87-4.42,4.15-4.79,4.48ZM132.78,23.92l-4.36-12.48-3.16-5.97c-.75-1.41-4.52-4.07-6.46-2.01-.64.68-1.05,2.36-.81,3.45l3.15,14.12,2.89,18.09c3.28-2.4,10.75-9,10.81-9.23.29-1.23-1.71-4.98-2.06-5.97ZM110.86,50.68c-.1-1.66-1.33-2.27-1.75-3.18-3.76-8.06-12.69-17.36-21.46-15.42-4.06.9-7.24,4.57-7.8,8.63,7.37,1.18,12.72,5.35,16.84,11.09,1.57,2.19,3.42,3.94,4.32,6.95l9.85-8.06ZM120.98,42.06c-1.31-3.29-3.46-5.68-6.27-7.9s-7.51-2.08-9.67,1c-1.08,1.54.97,2.41,1.52,3.33l6.18,10.43c3.55-1.71,4.97-5.05,8.24-6.87ZM67.01,76.34c1.06-4.12,2.82-8.63,6.6-10.74,3.88-2.17,7.99-.4,9.73,3.32l1.6,3.42,12.42-9.97c.66-.53,1.14-1.36,1.36-1.87.36-.82-.73-1.6-.88-2.13-.7-2.59-2.07-4.05-3.82-5.89-3.28-3.47-6.61-7.16-11.41-8.59-3.86-1.15-8.36-1.61-12.22-.35-3.44,1.12-9.52,6.85-11.14,9.65l-3.78,6.55c-2.5,5.6-4.18,11.15-5.42,17.12-.64,3.1-1.55,5.9-1.87,9.13-.56,5.59-1.16,13.13,3.25,15.11,4.04-2.57,7.36-5.75,10.74-9.01,1.59-1.54,2.2-3.29,1.87-5.57-.27-1.87,2.12-6.89,2.97-10.19ZM57.01,132.38l2.91,8.2,4.58,9.74c.84,1.78,2.62,3.17,4.08,4.54,3.23,3.02,9.01,3.19,13.5,1.54s11.22-10.5,13.67-15.62c.42-.87,2.56-1.33,3.53-.89l-5.22,7.97c-1.16,1.77-2.58,3.5-3.64,5.35-1.67,2.91-1.22,6.65-1.82,9.81-.34,1.76-1.46,3.09-.81,5.06l9.5,2.47c5.83.93,11.68,1.47,17.55.92,6.99-.66,13.71-1.66,20.21-4.1,1.41-.53,2.37-1.62,4.12-1.86l.88-14.5.12-5.34.78-17.9.3-14.98c.06-3.11.27-5.97.37-9.06l.32-9.77.1-14.4-.65-11.14c-.13-2.3-.38-4.41-.65-6.67-.47-3.95-.31-7.79-1.94-11.76l-6.78,4.98c-4.21,3.1.49,6.2-.39,9.81-.24.53-1.9.83-2.14.34l-1.91-6.33c-2.73,2.33-5.5,3.99-7.62,6.67-.85,3.41,2.89,6.86,2.27,10.65-.32.42-1.46.46-1.53.13l-.26-1.27-2.63-7.8-12.35,10.07c.99,3.54,1,6.55,1.52,10.07.09.62-1.08.64-1.63.34-1.37-.73.45-4.47-1.89-8.57-5.63,4.36-10.61,9.1-16.06,13.45-1.33,1.51-.09,4.57-.37,6.28-.44,2.64-.5,4.68-.22,7.14.44,3.91-.12,9.48-.83,13.66-.99,5.83-2.92,12.67-8.32,13.94-3.9-1.16-5.6-5.89-6.46-9.37l-1.93-7.78-4.07-6.4-3.35,2.5,1.5,9.81c.72,4.73-1.37,8.77-6.33,10.05ZM82.46,74.07c.34-.65-1.61-5.34-2.81-6.09-3.32-2.07-7.34.66-9.25,5.6-1.76,4.55-3.21,9-3.87,14.12,2.4-.31,3.34-2.44,4.85-3.58,3.03-2.28,10.33-8.63,11.08-10.06ZM75.55,129c.45.92,2.05,2.68,2.94,1.94,2.95-2.45,3.94-6.37,4.55-10.03,1.2-7.23,1.79-14.18,1.12-21.41l.14-4.06c-5.12,3.54-9.4,7.67-14.07,11.8l-3.4,1.36c5.82,6.56,5.8,14.48,8.72,20.39ZM12.71,149.58c2.43-.35,4.89-.75,6.35-2.67-2.64-3.1-5.24-5.65-7.33-9.19l-2.93,2.1-2.15,5.99-2.35,5.26c2.85-.22,5.85-1.12,8.41-1.49ZM99.81,178.94c-.36-.84-3.53-3.72-6.63-3.3-1.49.2-3.36,1.29-3.94,3.12-.64,2.04.08,4.26,1.36,5.37,1.58,1.37,3.5,1.15,5.38.75,3.52-.75,3.95-5.64,3.83-5.94Z"/>
  </g>
</svg>